<svg width="272" height="108" viewBox="0 0 272 108" fill="none" xmlns="http://www.w3.org/2000/svg">
<g filter="url(#filter0_d_326_2564)">
<path d="M219.093 94.5121C209.83 94.5121 200.857 91.2457 193.722 85.2757H31.2563C14.3023 85.2757 0.516602 71.3296 0.516602 54.1782C0.516602 37.0268 14.3023 23.0806 31.2563 23.0806H193.734C200.869 17.1229 209.83 13.8443 219.105 13.8443C241.089 13.8443 258.975 31.9377 258.975 54.1782C258.975 76.4187 241.089 94.5121 219.105 94.5121H219.093Z" fill="#E8E8E8"/>
</g>
<path d="M219.092 16.5473C209.756 16.5473 201.231 20.0338 194.701 25.7836H31.2556C15.7527 25.7836 3.17627 38.4942 3.17627 54.1898C3.17627 69.8731 15.7406 82.596 31.2556 82.596H194.701C201.231 88.3457 209.756 91.8323 219.092 91.8323C239.638 91.8323 256.289 74.9867 256.289 54.202C256.289 33.4173 239.638 16.5717 219.092 16.5717V16.5473Z" fill="url(#paint0_linear_326_2564)"/>
<path d="M216.117 25.7711H31.2556C15.7527 25.7711 3.17627 38.4817 3.17627 54.1773C3.17627 69.8606 15.7406 82.5835 31.2556 82.5835H216.129C231.632 82.5835 244.209 69.8729 244.209 54.1773C244.209 38.4939 231.644 25.7711 216.129 25.7711H216.117Z" fill="url(#paint1_linear_326_2564)"/>
<path style="mix-blend-mode:overlay" opacity="0.5" d="M200.071 32.8424H31.6435C21.9693 32.8424 14.1211 40.782 14.1211 50.5688C14.1211 60.3556 21.9693 68.2951 31.6435 68.2951H200.071C209.745 68.2951 217.593 60.3556 217.593 50.5688C217.593 40.782 209.745 32.8424 200.071 32.8424Z" fill="url(#paint2_linear_326_2564)"/>
<path d="M245.394 80.7823C259.92 66.0867 259.92 42.2606 245.394 27.565C230.867 12.8695 207.315 12.8695 192.789 27.565C178.262 42.2606 178.262 66.0867 192.789 80.7823C207.315 95.4778 230.867 95.4778 245.394 80.7823Z" fill="url(#paint3_linear_326_2564)"/>
<path d="M240.569 75.8425C252.509 63.764 252.509 44.181 240.569 32.1025C228.63 20.024 209.272 20.024 197.333 32.1025C185.393 44.181 185.393 63.764 197.333 75.8425C209.272 87.921 228.63 87.921 240.569 75.8425Z" fill="url(#paint4_linear_326_2564)"/>
<path style="mix-blend-mode:overlay" d="M123.693 95.1478C175.346 95.1478 217.218 89.5228 217.218 82.584C217.218 75.6452 175.346 70.0202 123.693 70.0202C72.0406 70.0202 30.168 75.6452 30.168 82.584C30.168 89.5228 72.0406 95.1478 123.693 95.1478Z" fill="url(#paint5_radial_326_2564)"/>
<g filter="url(#filter1_d_326_2564)">
<path d="M22.2745 50V46.994C22.2745 46.238 22.4245 45.656 22.7245 45.248C23.0245 44.84 23.4505 44.552 24.0025 44.384L24.0205 44.312L22.0945 43.61V43.142C22.0945 42.554 22.2685 42.014 22.6165 41.522C22.9645 41.03 23.4745 40.64 24.1465 40.352C24.8305 40.052 25.6585 39.902 26.6305 39.902C27.5425 39.902 28.3285 40.046 28.9885 40.334C29.6485 40.61 30.1585 41.03 30.5185 41.594C30.8905 42.146 31.0765 42.848 31.0765 43.7V50H28.3765V43.862C28.3765 43.262 28.2145 42.812 27.8905 42.512C27.5785 42.212 27.1345 42.062 26.5585 42.062C26.0065 42.062 25.5925 42.182 25.3165 42.422C25.0405 42.65 24.8905 42.932 24.8665 43.268L26.4685 44.006L26.2705 45.176C25.8385 45.2 25.5145 45.356 25.2985 45.644C25.0825 45.932 24.9745 46.322 24.9745 46.814V50H22.2745ZM36.2069 50V43.484C36.2069 42.98 36.0869 42.614 35.8469 42.386C35.6189 42.158 35.2409 42.044 34.7129 42.044C34.3169 42.044 33.9509 42.098 33.6149 42.206C33.2909 42.314 32.9849 42.446 32.6969 42.602V40.442C32.9609 40.322 33.3329 40.202 33.8129 40.082C34.2929 39.962 34.8569 39.902 35.5049 39.902C36.1649 39.902 36.7469 39.998 37.2509 40.19C37.7669 40.382 38.1689 40.706 38.4569 41.162C38.7569 41.606 38.9069 42.218 38.9069 42.998V50H36.2069ZM44.8032 50.234C44.0952 50.234 43.3812 50.156 42.6612 50C41.9532 49.844 41.3232 49.622 40.7712 49.334L41.5272 47.192C41.7672 47.324 42.0552 47.462 42.3912 47.606C42.7272 47.75 43.0932 47.87 43.4892 47.966C43.8852 48.062 44.2872 48.11 44.6952 48.11C45.1752 48.11 45.5352 48.044 45.7752 47.912C46.0272 47.768 46.1532 47.552 46.1532 47.264C46.1532 47.048 46.0692 46.874 45.9012 46.742C45.7452 46.598 45.5112 46.466 45.1992 46.346C44.8872 46.214 44.5152 46.076 44.0832 45.932C43.4472 45.704 42.9012 45.458 42.4452 45.194C41.9892 44.93 41.6352 44.606 41.3832 44.222C41.1432 43.838 41.0232 43.358 41.0232 42.782C41.0232 42.122 41.1912 41.582 41.5272 41.162C41.8632 40.742 42.3372 40.43 42.9492 40.226C43.5612 40.01 44.2752 39.902 45.0912 39.902C45.7632 39.902 46.3692 39.956 46.9092 40.064C47.4492 40.172 47.8692 40.31 48.1692 40.478V42.602C47.9652 42.506 47.6952 42.41 47.3592 42.314C47.0352 42.218 46.6812 42.14 46.2972 42.08C45.9252 42.008 45.5652 41.972 45.2172 41.972C44.7252 41.972 44.3532 42.038 44.1012 42.17C43.8492 42.302 43.7232 42.488 43.7232 42.728C43.7232 42.92 43.8072 43.082 43.9752 43.214C44.1552 43.346 44.4132 43.472 44.7492 43.592C45.0852 43.7 45.4872 43.838 45.9552 44.006C46.5792 44.222 47.1072 44.462 47.5392 44.726C47.9712 44.99 48.2952 45.314 48.5112 45.698C48.7392 46.082 48.8532 46.556 48.8532 47.12C48.8532 47.66 48.7272 48.17 48.4752 48.65C48.2352 49.118 47.8212 49.502 47.2332 49.802C46.6452 50.09 45.8352 50.234 44.8032 50.234ZM55.1816 50.234C53.6216 50.234 52.4876 49.874 51.7796 49.154C51.0836 48.422 50.7356 47.366 50.7356 45.986V40.136H53.4356V46.13C53.4356 46.766 53.5736 47.252 53.8496 47.588C54.1376 47.912 54.5816 48.074 55.1816 48.074C55.7816 48.074 56.2196 47.912 56.4956 47.588C56.7836 47.252 56.9276 46.766 56.9276 46.13V36.59H59.6276V45.986C59.6276 47.366 59.2736 48.422 58.5656 49.154C57.8696 49.874 56.7416 50.234 55.1816 50.234ZM65.5454 50.234C64.8374 50.234 64.1234 50.156 63.4034 50C62.6954 49.844 62.0654 49.622 61.5134 49.334L62.2694 47.192C62.5094 47.324 62.7974 47.462 63.1334 47.606C63.4694 47.75 63.8354 47.87 64.2314 47.966C64.6274 48.062 65.0294 48.11 65.4374 48.11C65.9174 48.11 66.2774 48.044 66.5174 47.912C66.7694 47.768 66.8954 47.552 66.8954 47.264C66.8954 47.048 66.8114 46.874 66.6434 46.742C66.4874 46.598 66.2534 46.466 65.9414 46.346C65.6294 46.214 65.2574 46.076 64.8254 45.932C64.1894 45.704 63.6434 45.458 63.1874 45.194C62.7314 44.93 62.3774 44.606 62.1254 44.222C61.8854 43.838 61.7654 43.358 61.7654 42.782C61.7654 42.122 61.9334 41.582 62.2694 41.162C62.6054 40.742 63.0794 40.43 63.6914 40.226C64.3034 40.01 65.0174 39.902 65.8334 39.902C66.5054 39.902 67.1114 39.956 67.6514 40.064C68.1914 40.172 68.6114 40.31 68.9114 40.478V42.602C68.7074 42.506 68.4374 42.41 68.1014 42.314C67.7774 42.218 67.4234 42.14 67.0394 42.08C66.6674 42.008 66.3074 41.972 65.9594 41.972C65.4674 41.972 65.0954 42.038 64.8434 42.17C64.5914 42.302 64.4654 42.488 64.4654 42.728C64.4654 42.92 64.5494 43.082 64.7174 43.214C64.8974 43.346 65.1554 43.472 65.4914 43.592C65.8274 43.7 66.2294 43.838 66.6974 44.006C67.3214 44.222 67.8494 44.462 68.2814 44.726C68.7134 44.99 69.0374 45.314 69.2534 45.698C69.4814 46.082 69.5954 46.556 69.5954 47.12C69.5954 47.66 69.4694 48.17 69.2174 48.65C68.9774 49.118 68.5634 49.502 67.9754 49.802C67.3874 50.09 66.5774 50.234 65.5454 50.234ZM73.1698 44.186C72.6178 44.186 72.1798 44.102 71.8558 43.934C71.5318 43.766 71.2978 43.544 71.1538 43.268C71.0098 42.98 70.9378 42.68 70.9378 42.368C70.9378 42.164 70.9678 41.954 71.0278 41.738C71.0878 41.51 71.1778 41.288 71.2978 41.072L73.2598 41.324C73.2358 41.408 73.2118 41.498 73.1878 41.594C73.1758 41.69 73.1698 41.792 73.1698 41.9C73.1698 42.056 73.2178 42.182 73.3138 42.278C73.4098 42.362 73.5778 42.404 73.8178 42.404H75.8518V44.186H73.1698ZM73.1698 49.226C72.6178 49.226 72.1798 49.142 71.8558 48.974C71.5318 48.806 71.2978 48.584 71.1538 48.308C71.0098 48.02 70.9378 47.72 70.9378 47.408C70.9378 47.204 70.9678 46.994 71.0278 46.778C71.0878 46.55 71.1778 46.328 71.2978 46.112L73.2598 46.364C73.2358 46.448 73.2118 46.538 73.1878 46.634C73.1758 46.73 73.1698 46.832 73.1698 46.94C73.1698 47.096 73.2178 47.222 73.3138 47.318C73.4098 47.402 73.5778 47.444 73.8178 47.444H75.8518V49.226H73.1698ZM80.7009 50.18C80.1609 50.18 79.7049 50.096 79.3329 49.928C78.9609 49.76 78.6789 49.508 78.4869 49.172C78.2949 48.824 78.1989 48.392 78.1989 47.876V40.136H80.8989V47.552C80.8989 47.78 80.9469 47.948 81.0429 48.056C81.1509 48.164 81.3129 48.218 81.5289 48.218C81.6249 48.218 81.7269 48.206 81.8349 48.182C81.9429 48.158 82.0449 48.128 82.1409 48.092L82.3929 49.82C82.1649 49.94 81.9069 50.03 81.6189 50.09C81.3309 50.15 81.0249 50.18 80.7009 50.18ZM89.8777 50.18C89.0257 50.18 88.3357 50.018 87.8077 49.694C87.2917 49.37 86.9257 48.956 86.7097 48.452H86.5657L86.2777 50H84.2257V40.136H86.9257V44.852C86.9257 45.536 87.0037 46.1 87.1597 46.544C87.3157 46.976 87.5437 47.3 87.8437 47.516C88.1437 47.732 88.5037 47.84 88.9237 47.84C89.4277 47.84 89.8117 47.69 90.0757 47.39C90.3397 47.09 90.4717 46.61 90.4717 45.95V40.136H93.1717V46.544C93.1717 47.324 93.0457 47.984 92.7937 48.524C92.5537 49.064 92.1877 49.478 91.6957 49.766C91.2037 50.042 90.5977 50.18 89.8777 50.18ZM85.0205 38.768V37.634L86.8385 36.878H93.2645V38.768H85.0205ZM99.0664 50.18C98.3344 50.18 97.7164 50.042 97.2124 49.766C96.7204 49.478 96.3424 49.052 96.0784 48.488C95.8264 47.924 95.7004 47.234 95.7004 46.418V40.136H98.4004V45.95C98.4004 46.61 98.5324 47.09 98.7964 47.39C99.0604 47.69 99.4444 47.84 99.9484 47.84C100.584 47.84 101.076 47.6 101.424 47.12C101.772 46.628 101.946 45.872 101.946 44.852V40.136H104.646V50H102.594L102.306 48.488H102.144C101.94 48.968 101.586 49.37 101.082 49.694C100.59 50.018 99.9184 50.18 99.0664 50.18ZM107.337 50V44.15C107.337 42.77 107.703 41.72 108.435 41C109.167 40.268 110.325 39.902 111.909 39.902C113.505 39.902 114.657 40.268 115.365 41C116.085 41.72 116.445 42.77 116.445 44.15V50H113.763V44.114C113.763 43.478 113.613 42.98 113.313 42.62C113.025 42.248 112.545 42.062 111.873 42.062C111.213 42.062 110.733 42.248 110.433 42.62C110.145 42.98 110.001 43.478 110.001 44.114V45.68L110.055 45.698C110.283 45.23 110.553 44.924 110.865 44.78C111.189 44.624 111.627 44.546 112.179 44.546H112.593V46.562H112.179C111.579 46.562 111.123 46.664 110.811 46.868C110.499 47.072 110.283 47.342 110.163 47.678C110.055 48.002 110.001 48.368 110.001 48.776V50H107.337ZM114.146 54.698V53.096C114.146 52.796 114.014 52.646 113.75 52.646C113.69 52.646 113.63 52.652 113.57 52.664C113.51 52.676 113.45 52.694 113.39 52.718L113.264 51.422C113.432 51.362 113.666 51.302 113.966 51.242C114.254 51.182 114.548 51.152 114.848 51.152C115.436 51.152 115.85 51.266 116.09 51.494C116.33 51.734 116.45 52.058 116.45 52.466V54.698H114.146ZM121.422 50.18C120.906 50.18 120.456 50.096 120.072 49.928C119.7 49.76 119.406 49.508 119.19 49.172C118.986 48.824 118.884 48.392 118.884 47.876V46.706C118.884 45.998 119.04 45.476 119.352 45.14C119.664 44.804 120.096 44.552 120.648 44.384L120.666 44.312L118.704 43.61V43.142C118.704 42.53 118.872 41.984 119.208 41.504C119.556 41.012 120.06 40.622 120.72 40.334C121.38 40.046 122.184 39.902 123.132 39.902C124.02 39.902 124.782 40.04 125.418 40.316C126.066 40.58 126.564 40.982 126.912 41.522C127.26 42.05 127.434 42.716 127.434 43.52V46.22C127.434 46.796 127.56 47.21 127.812 47.462C128.064 47.714 128.376 47.84 128.748 47.84C129.096 47.84 129.396 47.744 129.648 47.552C129.9 47.348 130.098 47.072 130.242 46.724C130.386 46.364 130.458 45.944 130.458 45.464V40.136H133.158V50H131.07L130.764 48.452H130.62C130.404 48.956 130.05 49.37 129.558 49.694C129.078 50.018 128.478 50.18 127.758 50.18C126.774 50.18 126.03 49.922 125.526 49.406C125.034 48.878 124.788 48.05 124.788 46.922V43.718C124.788 43.298 124.71 42.968 124.554 42.728C124.41 42.476 124.212 42.296 123.96 42.188C123.708 42.08 123.42 42.026 123.096 42.026C122.64 42.026 122.262 42.128 121.962 42.332C121.662 42.524 121.5 42.818 121.476 43.214L123.042 43.97L122.862 45.14C122.418 45.152 122.082 45.26 121.854 45.464C121.626 45.656 121.512 45.998 121.512 46.49V47.588C121.512 47.852 121.566 48.044 121.674 48.164C121.794 48.272 121.98 48.326 122.232 48.326C122.34 48.326 122.448 48.32 122.556 48.308C122.676 48.284 122.778 48.254 122.862 48.218L123.114 49.82C122.886 49.94 122.628 50.03 122.34 50.09C122.052 50.15 121.746 50.18 121.422 50.18ZM139.719 50.234C138.975 50.234 138.261 50.168 137.577 50.036C136.905 49.904 136.305 49.742 135.777 49.55V45.662H138.081V48.11C138.261 48.17 138.483 48.224 138.747 48.272C139.023 48.32 139.305 48.344 139.593 48.344C139.929 48.344 140.229 48.308 140.493 48.236C140.757 48.152 140.967 48.014 141.123 47.822C141.279 47.618 141.357 47.348 141.357 47.012C141.357 46.724 141.291 46.496 141.159 46.328C141.039 46.148 140.859 46.004 140.619 45.896C140.379 45.788 140.085 45.692 139.737 45.608C139.389 45.512 138.993 45.404 138.549 45.284C137.901 45.104 137.343 44.918 136.875 44.726C136.419 44.522 136.065 44.258 135.813 43.934C135.573 43.61 135.453 43.178 135.453 42.638C135.453 41.978 135.627 41.45 135.975 41.054C136.323 40.646 136.815 40.352 137.451 40.172C138.087 39.992 138.837 39.902 139.701 39.902C140.517 39.902 141.219 39.968 141.807 40.1C142.407 40.22 142.863 40.346 143.175 40.478V42.548C142.947 42.452 142.635 42.356 142.239 42.26C141.855 42.152 141.429 42.062 140.961 41.99C140.493 41.918 140.025 41.882 139.557 41.882C139.293 41.882 139.053 41.9 138.837 41.936C138.633 41.972 138.465 42.032 138.333 42.116C138.213 42.2 138.153 42.32 138.153 42.476C138.153 42.668 138.261 42.818 138.477 42.926C138.693 43.022 138.993 43.118 139.377 43.214C139.761 43.298 140.205 43.418 140.709 43.574C141.213 43.73 141.663 43.904 142.059 44.096C142.467 44.276 142.809 44.492 143.085 44.744C143.361 44.996 143.571 45.302 143.715 45.662C143.859 46.022 143.931 46.454 143.931 46.958C143.931 47.582 143.799 48.14 143.535 48.632C143.283 49.124 142.851 49.514 142.239 49.802C141.627 50.09 140.787 50.234 139.719 50.234ZM149.27 50.234C148.562 50.234 147.848 50.156 147.128 50C146.42 49.844 145.79 49.622 145.238 49.334L145.994 47.192C146.234 47.324 146.522 47.462 146.858 47.606C147.194 47.75 147.56 47.87 147.956 47.966C148.352 48.062 148.754 48.11 149.162 48.11C149.642 48.11 150.002 48.044 150.242 47.912C150.494 47.768 150.62 47.552 150.62 47.264C150.62 47.048 150.536 46.874 150.368 46.742C150.212 46.598 149.978 46.466 149.666 46.346C149.354 46.214 148.982 46.076 148.55 45.932C147.914 45.704 147.368 45.458 146.912 45.194C146.456 44.93 146.102 44.606 145.85 44.222C145.61 43.838 145.49 43.358 145.49 42.782C145.49 42.122 145.658 41.582 145.994 41.162C146.33 40.742 146.804 40.43 147.416 40.226C148.028 40.01 148.742 39.902 149.558 39.902C150.23 39.902 150.836 39.956 151.376 40.064C151.916 40.172 152.336 40.31 152.636 40.478V42.602C152.432 42.506 152.162 42.41 151.826 42.314C151.502 42.218 151.148 42.14 150.764 42.08C150.392 42.008 150.032 41.972 149.684 41.972C149.192 41.972 148.82 42.038 148.568 42.17C148.316 42.302 148.19 42.488 148.19 42.728C148.19 42.92 148.274 43.082 148.442 43.214C148.622 43.346 148.88 43.472 149.216 43.592C149.552 43.7 149.954 43.838 150.422 44.006C151.046 44.222 151.574 44.462 152.006 44.726C152.438 44.99 152.762 45.314 152.978 45.698C153.206 46.082 153.32 46.556 153.32 47.12C153.32 47.66 153.194 48.17 152.942 48.65C152.702 49.118 152.288 49.502 151.7 49.802C151.112 50.09 150.302 50.234 149.27 50.234ZM158.586 50.234C157.878 50.234 157.164 50.156 156.444 50C155.736 49.844 155.106 49.622 154.554 49.334L155.31 47.192C155.55 47.324 155.838 47.462 156.174 47.606C156.51 47.75 156.876 47.87 157.272 47.966C157.668 48.062 158.07 48.11 158.478 48.11C158.958 48.11 159.318 48.044 159.558 47.912C159.81 47.768 159.936 47.552 159.936 47.264C159.936 47.048 159.852 46.874 159.684 46.742C159.528 46.598 159.294 46.466 158.982 46.346C158.67 46.214 158.298 46.076 157.866 45.932C157.23 45.704 156.684 45.458 156.228 45.194C155.772 44.93 155.418 44.606 155.166 44.222C154.926 43.838 154.806 43.358 154.806 42.782C154.806 42.122 154.974 41.582 155.31 41.162C155.646 40.742 156.12 40.43 156.732 40.226C157.344 40.01 158.058 39.902 158.874 39.902C159.546 39.902 160.152 39.956 160.692 40.064C161.232 40.172 161.652 40.31 161.952 40.478V42.602C161.748 42.506 161.478 42.41 161.142 42.314C160.818 42.218 160.464 42.14 160.08 42.08C159.708 42.008 159.348 41.972 159 41.972C158.508 41.972 158.136 42.038 157.884 42.17C157.632 42.302 157.506 42.488 157.506 42.728C157.506 42.92 157.59 43.082 157.758 43.214C157.938 43.346 158.196 43.472 158.532 43.592C158.868 43.7 159.27 43.838 159.738 44.006C160.362 44.222 160.89 44.462 161.322 44.726C161.754 44.99 162.078 45.314 162.294 45.698C162.522 46.082 162.636 46.556 162.636 47.12C162.636 47.66 162.51 48.17 162.258 48.65C162.018 49.118 161.604 49.502 161.016 49.802C160.428 50.09 159.618 50.234 158.586 50.234ZM170.333 50.18C169.481 50.18 168.791 50.018 168.263 49.694C167.747 49.37 167.381 48.956 167.165 48.452H167.021L166.733 50H164.681V40.136H167.381V44.852C167.381 45.536 167.459 46.1 167.615 46.544C167.771 46.976 167.999 47.3 168.299 47.516C168.599 47.732 168.959 47.84 169.379 47.84C169.883 47.84 170.267 47.69 170.531 47.39C170.795 47.09 170.927 46.61 170.927 45.95V40.136H173.627V46.544C173.627 47.324 173.501 47.984 173.249 48.524C173.009 49.064 172.643 49.478 172.151 49.766C171.659 50.042 171.053 50.18 170.333 50.18Z" fill="#693708"/>
</g>
<g filter="url(#filter2_d_326_2564)">
<path d="M43.0786 73.18C42.6466 73.18 42.2626 73.114 41.9266 72.982C41.6026 72.838 41.3446 72.616 41.1526 72.316C40.9606 72.004 40.8646 71.596 40.8646 71.092V63.136H42.9706V70.84C42.9706 71.092 43.0246 71.278 43.1326 71.398C43.2526 71.506 43.4326 71.56 43.6726 71.56C43.7686 71.56 43.8706 71.548 43.9786 71.524C44.0986 71.5 44.2126 71.47 44.3206 71.434L44.5546 72.874C44.3266 72.982 44.0866 73.06 43.8346 73.108C43.5826 73.156 43.3306 73.18 43.0786 73.18ZM48.2266 73.18C47.7946 73.18 47.4106 73.114 47.0746 72.982C46.7506 72.838 46.4926 72.616 46.3006 72.316C46.1086 72.004 46.0126 71.596 46.0126 71.092V63.136H48.1186V70.84C48.1186 71.092 48.1726 71.278 48.2806 71.398C48.4006 71.506 48.5806 71.56 48.8206 71.56C48.9166 71.56 49.0186 71.548 49.1266 71.524C49.2466 71.5 49.3606 71.47 49.4686 71.434L49.7026 72.874C49.4746 72.982 49.2346 73.06 48.9826 73.108C48.7306 73.156 48.4786 73.18 48.2266 73.18ZM57.0056 73V66.502C57.0056 65.818 56.8376 65.332 56.5016 65.044C56.1656 64.744 55.6256 64.594 54.8816 64.594C54.2696 64.594 53.6756 64.684 53.0996 64.864C52.5356 65.032 52.0256 65.248 51.5696 65.512V63.694C51.9176 63.514 52.3976 63.346 53.0096 63.19C53.6216 63.022 54.3236 62.938 55.1156 62.938C55.7396 62.938 56.2916 63.004 56.7716 63.136C57.2636 63.268 57.6776 63.478 58.0136 63.766C58.3616 64.042 58.6256 64.408 58.8056 64.864C58.9856 65.32 59.0756 65.866 59.0756 66.502V73H57.0056ZM53.9636 73.18C52.9196 73.18 52.1156 72.94 51.5516 72.46C50.9996 71.968 50.7236 71.266 50.7236 70.354C50.7236 69.382 51.0776 68.62 51.7856 68.068C52.5056 67.504 53.6456 67.168 55.2056 67.06L57.3836 66.916V68.518L55.4576 68.68C54.4736 68.764 53.7896 68.938 53.4056 69.202C53.0216 69.454 52.8296 69.82 52.8296 70.3C52.8296 70.756 52.9736 71.098 53.2616 71.326C53.5616 71.542 53.9636 71.65 54.4676 71.65C54.6476 71.65 54.8156 71.638 54.9716 71.614C55.1276 71.578 55.2776 71.536 55.4216 71.488L55.6556 72.928C55.4276 73.012 55.1696 73.072 54.8816 73.108C54.5936 73.156 54.2876 73.18 53.9636 73.18ZM63.2874 66.988C62.7714 66.988 62.3514 66.91 62.0274 66.754C61.7154 66.586 61.4874 66.376 61.3434 66.124C61.2114 65.872 61.1454 65.602 61.1454 65.314C61.1454 65.122 61.1754 64.924 61.2354 64.72C61.2954 64.516 61.3734 64.324 61.4694 64.144L63.1074 64.378C63.0834 64.45 63.0594 64.54 63.0354 64.648C63.0114 64.744 62.9994 64.846 62.9994 64.954C62.9994 65.11 63.0414 65.236 63.1254 65.332C63.2214 65.428 63.3834 65.476 63.6114 65.476H65.9334V66.988H63.2874ZM63.2874 72.028C62.7714 72.028 62.3514 71.95 62.0274 71.794C61.7154 71.626 61.4874 71.416 61.3434 71.164C61.2114 70.912 61.1454 70.642 61.1454 70.354C61.1454 70.162 61.1754 69.964 61.2354 69.76C61.2954 69.556 61.3734 69.364 61.4694 69.184L63.1074 69.418C63.0834 69.49 63.0594 69.58 63.0354 69.688C63.0114 69.784 62.9994 69.886 62.9994 69.994C62.9994 70.15 63.0414 70.276 63.1254 70.372C63.2214 70.468 63.3834 70.516 63.6114 70.516H65.9334V72.028H63.2874ZM68.0516 73V66.898C68.0516 65.614 68.3936 64.636 69.0776 63.964C69.7616 63.28 70.8536 62.938 72.3536 62.938C73.8536 62.938 74.9396 63.28 75.6116 63.964C76.2956 64.636 76.6376 65.614 76.6376 66.898V73H74.5316V66.898C74.5316 66.166 74.3516 65.608 73.9916 65.224C73.6316 64.84 73.0736 64.648 72.3176 64.648C71.5856 64.648 71.0396 64.84 70.6796 65.224C70.3196 65.608 70.1396 66.16 70.1396 66.88V68.698L70.1936 68.716C70.4456 68.248 70.7456 67.942 71.0936 67.798C71.4536 67.642 71.9456 67.564 72.5696 67.564H73.0916V69.184H72.5696C71.8976 69.184 71.3876 69.286 71.0396 69.49C70.6916 69.694 70.4516 69.964 70.3196 70.3C70.1996 70.624 70.1396 70.99 70.1396 71.398V73H68.0516ZM81.6399 73.198C81.1119 73.198 80.6019 73.138 80.1099 73.018C79.6299 72.91 79.1499 72.73 78.6699 72.478L79.2819 70.912C79.5459 71.068 79.8519 71.206 80.1999 71.326C80.5479 71.434 80.9259 71.488 81.3339 71.488C82.1259 71.488 82.7439 71.194 83.1879 70.606C83.6439 70.018 83.8719 69.16 83.8719 68.032C83.8719 66.928 83.6439 66.088 83.1879 65.512C82.7319 64.936 82.0239 64.648 81.0639 64.648C80.6799 64.648 80.2839 64.696 79.8759 64.792C79.4679 64.888 79.1199 65.02 78.8319 65.188V63.442C79.1919 63.262 79.5879 63.136 80.0199 63.064C80.4639 62.98 80.9199 62.938 81.3879 62.938C82.4799 62.938 83.3679 63.148 84.0519 63.568C84.7359 63.976 85.2339 64.564 85.5459 65.332C85.8699 66.088 86.0319 66.988 86.0319 68.032C86.0319 69.664 85.6539 70.936 84.8979 71.848C84.1539 72.748 83.0679 73.198 81.6399 73.198ZM91.1071 73V66.214C91.1071 65.674 90.9811 65.278 90.7291 65.026C90.4771 64.762 90.0571 64.63 89.4691 64.63C89.0611 64.63 88.6771 64.69 88.3171 64.81C87.9571 64.918 87.6211 65.062 87.3091 65.242V63.478C87.5611 63.358 87.9151 63.238 88.3711 63.118C88.8271 62.998 89.3731 62.938 90.0091 62.938C90.6451 62.938 91.2031 63.034 91.6831 63.226C92.1631 63.406 92.5351 63.712 92.7991 64.144C93.0751 64.564 93.2131 65.14 93.2131 65.872V73H91.1071ZM101.186 73.18C100.382 73.18 99.7101 73.024 99.1701 72.712C98.6301 72.4 98.2521 71.974 98.0361 71.434H97.9281L97.7481 73H96.0921V63.136H98.1981V68.392C98.1981 69.028 98.2881 69.568 98.4681 70.012C98.6601 70.456 98.9301 70.798 99.2781 71.038C99.6381 71.266 100.07 71.38 100.574 71.38C101.186 71.38 101.648 71.212 101.96 70.876C102.272 70.528 102.428 70.012 102.428 69.328V63.136H104.534V69.652C104.534 70.432 104.402 71.086 104.138 71.614C103.886 72.13 103.508 72.52 103.004 72.784C102.5 73.048 101.894 73.18 101.186 73.18ZM107.826 64.936V61.678C107.826 60.958 107.67 60.442 107.358 60.13C107.058 59.818 106.644 59.662 106.116 59.662V58.798L107.682 58.096H112.38V59.662H109.014L108.996 59.734C109.284 59.926 109.512 60.202 109.68 60.562C109.848 60.922 109.932 61.396 109.932 61.984V64.936H107.826ZM110.04 73.18C109.62 73.18 109.242 73.114 108.906 72.982C108.57 72.838 108.306 72.616 108.114 72.316C107.922 72.004 107.826 71.596 107.826 71.092V63.136H109.932V70.84C109.932 71.092 109.986 71.278 110.094 71.398C110.214 71.506 110.394 71.56 110.634 71.56C110.742 71.56 110.85 71.548 110.958 71.524C111.078 71.5 111.186 71.47 111.282 71.434L111.516 72.874C111.288 72.982 111.048 73.06 110.796 73.108C110.556 73.156 110.304 73.18 110.04 73.18ZM117.175 73.198C115.699 73.198 114.631 72.856 113.971 72.172C113.323 71.488 112.999 70.51 112.999 69.238V63.136H115.105V69.31C115.105 70.03 115.273 70.576 115.609 70.948C115.945 71.308 116.467 71.488 117.175 71.488C117.895 71.488 118.423 71.308 118.759 70.948C119.107 70.576 119.281 70.03 119.281 69.31V59.59H121.387V69.238C121.387 70.51 121.057 71.488 120.397 72.172C119.737 72.856 118.663 73.198 117.175 73.198ZM127.203 73.198C126.495 73.198 125.811 73.126 125.151 72.982C124.491 72.838 123.921 72.646 123.441 72.406L124.053 70.732C124.293 70.84 124.575 70.96 124.899 71.092C125.235 71.212 125.595 71.314 125.979 71.398C126.363 71.47 126.759 71.506 127.167 71.506C127.731 71.506 128.181 71.41 128.517 71.218C128.865 71.026 129.039 70.738 129.039 70.354C129.039 70.114 128.961 69.91 128.805 69.742C128.649 69.562 128.415 69.4 128.103 69.256C127.791 69.112 127.401 68.962 126.933 68.806C126.237 68.566 125.643 68.314 125.151 68.05C124.659 67.786 124.281 67.462 124.017 67.078C123.753 66.694 123.621 66.22 123.621 65.656C123.621 65.08 123.771 64.594 124.071 64.198C124.383 63.79 124.833 63.478 125.421 63.262C126.009 63.046 126.729 62.938 127.581 62.938C128.205 62.938 128.775 62.992 129.291 63.1C129.819 63.196 130.227 63.334 130.515 63.514V65.206C130.311 65.11 130.053 65.014 129.741 64.918C129.429 64.822 129.087 64.744 128.715 64.684C128.343 64.624 127.977 64.594 127.617 64.594C126.945 64.594 126.459 64.69 126.159 64.882C125.871 65.074 125.727 65.308 125.727 65.584C125.727 65.824 125.805 66.022 125.961 66.178C126.129 66.334 126.387 66.484 126.735 66.628C127.095 66.772 127.551 66.94 128.103 67.132C128.703 67.336 129.231 67.57 129.687 67.834C130.143 68.086 130.497 68.404 130.749 68.788C131.013 69.16 131.145 69.634 131.145 70.21C131.145 70.738 131.019 71.23 130.767 71.686C130.527 72.142 130.119 72.508 129.543 72.784C128.967 73.06 128.187 73.198 127.203 73.198ZM128.791 61.66V57.736H130.789V61.66H128.791ZM134.835 73L131.847 63.136H133.971L136.419 71.254H136.581C136.821 71.254 137.055 71.194 137.283 71.074C137.511 70.942 137.703 70.774 137.859 70.57C138.171 70.21 138.399 69.76 138.543 69.22C138.687 68.68 138.759 68.146 138.759 67.618C138.759 66.706 138.567 65.998 138.183 65.494C137.799 64.99 137.271 64.738 136.599 64.738C136.467 64.738 136.335 64.75 136.203 64.774C136.083 64.786 135.981 64.81 135.897 64.846L135.447 63.208C135.711 63.124 135.957 63.076 136.185 63.064C136.425 63.04 136.629 63.028 136.797 63.028C137.421 63.028 137.967 63.112 138.435 63.28C138.903 63.448 139.305 63.7 139.641 64.036C140.061 64.444 140.373 64.954 140.577 65.566C140.781 66.178 140.883 66.862 140.883 67.618C140.883 68.566 140.733 69.406 140.433 70.138C140.145 70.858 139.785 71.434 139.353 71.866C138.993 72.214 138.549 72.49 138.021 72.694C137.505 72.898 136.821 73 135.969 73H134.835ZM145.522 73.18C145.09 73.18 144.706 73.114 144.37 72.982C144.046 72.838 143.788 72.616 143.596 72.316C143.404 72.004 143.308 71.596 143.308 71.092V64.234C143.308 63.91 143.332 63.646 143.38 63.442C143.428 63.226 143.518 63.022 143.65 62.83C143.782 62.638 143.968 62.398 144.208 62.11C144.484 61.774 144.694 61.498 144.838 61.282C144.982 61.054 145.054 60.802 145.054 60.526C145.054 60.214 144.952 59.974 144.748 59.806C144.544 59.638 144.232 59.554 143.812 59.554C143.464 59.554 143.146 59.602 142.858 59.698C142.582 59.794 142.342 59.902 142.138 60.022V58.366C142.306 58.27 142.582 58.168 142.966 58.06C143.35 57.952 143.812 57.898 144.352 57.898C145.216 57.898 145.906 58.084 146.422 58.456C146.938 58.828 147.196 59.392 147.196 60.148C147.196 60.628 147.106 61.048 146.926 61.408C146.746 61.768 146.542 62.092 146.314 62.38C146.122 62.644 145.954 62.866 145.81 63.046C145.678 63.214 145.576 63.388 145.504 63.568C145.444 63.748 145.414 63.988 145.414 64.288V70.84C145.414 71.092 145.468 71.278 145.576 71.398C145.684 71.506 145.852 71.56 146.08 71.56C146.2 71.56 146.314 71.548 146.422 71.524C146.542 71.5 146.65 71.47 146.746 71.434L146.98 72.874C146.752 72.982 146.512 73.06 146.26 73.108C146.02 73.156 145.774 73.18 145.522 73.18ZM154.301 73V66.502C154.301 65.818 154.133 65.332 153.797 65.044C153.461 64.744 152.921 64.594 152.177 64.594C151.565 64.594 150.971 64.684 150.395 64.864C149.831 65.032 149.321 65.248 148.865 65.512V63.694C149.213 63.514 149.693 63.346 150.305 63.19C150.917 63.022 151.613 62.938 152.393 62.938C153.029 62.938 153.587 63.016 154.067 63.172C154.547 63.316 154.895 63.592 155.111 64C155.567 64.18 155.891 64.486 156.083 64.918C156.275 65.338 156.371 65.866 156.371 66.502V73H154.301ZM151.259 73.18C150.215 73.18 149.411 72.94 148.847 72.46C148.295 71.968 148.019 71.266 148.019 70.354C148.019 69.382 148.373 68.62 149.081 68.068C149.801 67.504 150.941 67.168 152.501 67.06L154.679 66.916V68.518L152.753 68.68C151.769 68.764 151.085 68.938 150.701 69.202C150.317 69.454 150.125 69.82 150.125 70.3C150.125 70.756 150.269 71.098 150.557 71.326C150.857 71.542 151.259 71.65 151.763 71.65C151.943 71.65 152.111 71.638 152.267 71.614C152.423 71.578 152.573 71.536 152.717 71.488L152.951 72.928C152.723 73.012 152.465 73.072 152.177 73.108C151.889 73.156 151.583 73.18 151.259 73.18ZM155.057 64.792L153.887 63.766C154.259 63.67 154.571 63.52 154.823 63.316C155.087 63.112 155.219 62.836 155.219 62.488H157.145C157.145 62.86 157.061 63.202 156.893 63.514C156.737 63.826 156.503 64.09 156.191 64.306C155.879 64.51 155.501 64.672 155.057 64.792Z" fill="#693708"/>
</g>
<g filter="url(#filter3_d_326_2564)">
<path d="M204.882 46.5434V66.2543H200.715V46.5434H204.882ZM207.56 49.9794V46.5434H223.749V49.9794H217.714V66.2543H213.595V49.9794H207.56ZM227.403 66.2543H222.938L229.742 46.5434H235.113L241.907 66.2543H237.442L232.504 51.0477H232.35L227.403 66.2543ZM227.124 58.5066H237.673V61.7597H227.124V58.5066Z" fill="#693708"/>
</g>
<defs>
<filter id="filter0_d_326_2564" x="-0.570892" y="12.2131" width="267.158" height="89.3677" filterUnits="userSpaceOnUse" color-interpolation-filters="sRGB">
<feFlood flood-opacity="0" result="BackgroundImageFix"/>
<feColorMatrix in="SourceAlpha" type="matrix" values="0 0 0 0 0 0 0 0 0 0 0 0 0 0 0 0 0 0 127 0" result="hardAlpha"/>
<feOffset dx="3.26248" dy="2.71874"/>
<feGaussianBlur stdDeviation="2.17499"/>
<feColorMatrix type="matrix" values="0 0 0 0 0 0 0 0 0 0 0 0 0 0 0 0 0 0 0.3 0"/>
<feBlend mode="normal" in2="BackgroundImageFix" result="effect1_dropShadow_326_2564"/>
<feBlend mode="normal" in="SourceGraphic" in2="effect1_dropShadow_326_2564" result="shape"/>
</filter>
<filter id="filter1_d_326_2564" x="20.7396" y="36.59" width="156.953" height="23.5285" filterUnits="userSpaceOnUse" color-interpolation-filters="sRGB">
<feFlood flood-opacity="0" result="BackgroundImageFix"/>
<feColorMatrix in="SourceAlpha" type="matrix" values="0 0 0 0 0 0 0 0 0 0 0 0 0 0 0 0 0 0 127 0" result="hardAlpha"/>
<feOffset dx="1.35512" dy="2.71024"/>
<feGaussianBlur stdDeviation="1.35512"/>
<feComposite in2="hardAlpha" operator="out"/>
<feColorMatrix type="matrix" values="0 0 0 0 0 0 0 0 0 0 0 0 0 0 0 0 0 0 0.25 0"/>
<feBlend mode="normal" in2="BackgroundImageFix" result="effect1_dropShadow_326_2564"/>
<feBlend mode="normal" in="SourceGraphic" in2="effect1_dropShadow_326_2564" result="shape"/>
</filter>
<filter id="filter2_d_326_2564" x="39.5096" y="57.736" width="121.7" height="20.8825" filterUnits="userSpaceOnUse" color-interpolation-filters="sRGB">
<feFlood flood-opacity="0" result="BackgroundImageFix"/>
<feColorMatrix in="SourceAlpha" type="matrix" values="0 0 0 0 0 0 0 0 0 0 0 0 0 0 0 0 0 0 127 0" result="hardAlpha"/>
<feOffset dx="1.35512" dy="2.71024"/>
<feGaussianBlur stdDeviation="1.35512"/>
<feComposite in2="hardAlpha" operator="out"/>
<feColorMatrix type="matrix" values="0 0 0 0 0 0 0 0 0 0 0 0 0 0 0 0 0 0 0.25 0"/>
<feBlend mode="normal" in2="BackgroundImageFix" result="effect1_dropShadow_326_2564"/>
<feBlend mode="normal" in="SourceGraphic" in2="effect1_dropShadow_326_2564" result="shape"/>
</filter>
<filter id="filter3_d_326_2564" x="199.36" y="46.5434" width="46.6129" height="25.1313" filterUnits="userSpaceOnUse" color-interpolation-filters="sRGB">
<feFlood flood-opacity="0" result="BackgroundImageFix"/>
<feColorMatrix in="SourceAlpha" type="matrix" values="0 0 0 0 0 0 0 0 0 0 0 0 0 0 0 0 0 0 127 0" result="hardAlpha"/>
<feOffset dx="1.35512" dy="2.71024"/>
<feGaussianBlur stdDeviation="1.35512"/>
<feComposite in2="hardAlpha" operator="out"/>
<feColorMatrix type="matrix" values="0 0 0 0 0 0 0 0 0 0 0 0 0 0 0 0 0 0 0.25 0"/>
<feBlend mode="normal" in2="BackgroundImageFix" result="effect1_dropShadow_326_2564"/>
<feBlend mode="normal" in="SourceGraphic" in2="effect1_dropShadow_326_2564" result="shape"/>
</filter>
<linearGradient id="paint0_linear_326_2564" x1="129.739" y1="16.1436" x2="129.739" y2="109.632" gradientUnits="userSpaceOnUse">
<stop stop-color="white"/>
<stop offset="0.67" stop-color="#CCCCCC"/>
<stop offset="1" stop-color="#A5A5A5"/>
</linearGradient>
<linearGradient id="paint1_linear_326_2564" x1="123.662" y1="17.2492" x2="123.808" y2="158.144" gradientUnits="userSpaceOnUse">
<stop stop-color="#D39B2C"/>
<stop offset="0.135417" stop-color="#FAE370"/>
<stop offset="0.271006" stop-color="#F9CC42"/>
<stop offset="0.502278" stop-color="#FFF1A7"/>
</linearGradient>
<linearGradient id="paint2_linear_326_2564" x1="115.857" y1="32.6589" x2="115.857" y2="76.6873" gradientUnits="userSpaceOnUse">
<stop stop-color="white"/>
<stop offset="0.11" stop-color="white" stop-opacity="0.88"/>
<stop offset="0.44" stop-color="white" stop-opacity="0.51"/>
<stop offset="0.71" stop-color="white" stop-opacity="0.23"/>
<stop offset="0.9" stop-color="white" stop-opacity="0.06"/>
<stop offset="1" stop-color="white" stop-opacity="0"/>
</linearGradient>
<linearGradient id="paint3_linear_326_2564" x1="219.093" y1="16.1364" x2="219.093" y2="109.625" gradientUnits="userSpaceOnUse">
<stop stop-color="white"/>
<stop offset="0.67" stop-color="#CCCCCC"/>
<stop offset="1" stop-color="#A5A5A5"/>
</linearGradient>
<linearGradient id="paint4_linear_326_2564" x1="190.842" y1="25.547" x2="299.774" y2="132.282" gradientUnits="userSpaceOnUse">
<stop stop-color="#D39B2C"/>
<stop offset="0.135417" stop-color="#FAE370"/>
<stop offset="0.271006" stop-color="#F9CC42"/>
<stop offset="0.502278" stop-color="#FFF1A7"/>
</linearGradient>
<radialGradient id="paint5_radial_326_2564" cx="0" cy="0" r="1" gradientUnits="userSpaceOnUse" gradientTransform="translate(124.255 84.1108) scale(93.6703 12.6348)">
<stop stop-color="white"/>
<stop offset="0.11" stop-color="white" stop-opacity="0.86"/>
<stop offset="0.36" stop-color="white" stop-opacity="0.56"/>
<stop offset="0.58" stop-color="white" stop-opacity="0.32"/>
<stop offset="0.77" stop-color="white" stop-opacity="0.15"/>
<stop offset="0.91" stop-color="white" stop-opacity="0.04"/>
<stop offset="1" stop-color="white" stop-opacity="0"/>
</radialGradient>
</defs>
</svg>
