<svg width="271" height="107" viewBox="0 0 271 107" fill="none" xmlns="http://www.w3.org/2000/svg">
<g filter="url(#filter0_d_326_2575)">
<path d="M217.102 93.3552C207.989 93.3552 199.162 90.2002 192.143 84.4336H32.3091C15.6298 84.4336 2.06738 70.9626 2.06738 54.3955C2.06738 37.8285 15.6298 24.3575 32.3091 24.3575H192.155C199.174 18.6027 207.989 15.4359 217.114 15.4359C238.743 15.4359 256.338 32.9128 256.338 54.3955C256.338 75.8783 238.743 93.3552 217.114 93.3552H217.102Z" fill="#E8E8E8"/>
</g>
<g filter="url(#filter1_d_326_2575)">
<path d="M32.9015 83.0806C14.7657 83.0806 0 70.0371 0 53.9967C0 37.9562 14.7556 24.9217 32.9015 24.9217H185.153C203.289 24.9217 218.055 37.9652 218.055 54.0056C218.055 70.0461 203.299 83.0896 185.153 83.0896H32.9015V83.0806Z" fill="#E8E8E8"/>
</g>
<path d="M185.163 26.899H32.9013C15.9655 26.899 2.23633 39.0351 2.23633 54.0058V54.0148C2.23633 68.9855 15.9655 81.1216 32.9013 81.1216H185.163C202.099 81.1216 215.828 68.9855 215.828 54.0148V54.0058C215.828 39.0351 202.099 26.899 185.163 26.899Z" fill="url(#paint0_linear_326_2575)"/>
<path style="mix-blend-mode:overlay" opacity="0.5" d="M189.937 31.9313H37.1282C28.6246 31.9313 21.7261 37.761 21.7261 44.947C21.7261 52.133 28.6246 57.9626 37.1282 57.9626H189.948C198.451 57.9626 205.35 52.133 205.35 44.947C205.35 37.761 198.451 31.9313 189.948 31.9313H189.937Z" fill="url(#paint1_linear_326_2575)"/>
<path style="mix-blend-mode:overlay" d="M109.027 90.3C152.255 90.3 187.298 86.1866 187.298 81.1123C187.298 76.0381 152.255 71.9247 109.027 71.9247C65.7987 71.9247 30.7554 76.0381 30.7554 81.1123C30.7554 86.1866 65.7987 90.3 109.027 90.3Z" fill="url(#paint2_radial_326_2575)"/>
<path d="M244.25 80.3553C259.023 65.6597 259.023 41.8336 244.25 27.138C229.477 12.4425 205.524 12.4425 190.751 27.138C175.977 41.8336 175.977 65.6597 190.751 80.3553C205.524 95.0508 229.477 95.0508 244.25 80.3553Z" fill="url(#paint3_linear_326_2575)"/>
<path d="M239.344 75.4155C251.486 63.3371 251.486 43.754 239.344 31.6755C227.201 19.5971 207.514 19.5971 195.372 31.6755C183.229 43.754 183.229 63.3371 195.372 75.4155C207.514 87.494 227.201 87.494 239.344 75.4155Z" fill="url(#paint4_linear_326_2575)"/>
<g filter="url(#filter2_d_326_2575)">
<path d="M217.921 55.4119C222.298 55.4119 225.845 51.9234 225.845 47.62C225.845 43.3166 222.298 39.8281 217.921 39.8281C213.544 39.8281 209.997 43.3166 209.997 47.62C209.997 51.9234 213.544 55.4119 217.921 55.4119Z" fill="#523003"/>
<path d="M217.921 58.0093C211.36 58.0165 206.042 63.2451 206.035 69.6972C206.035 70.4144 206.626 70.9958 207.355 70.9958H228.487C229.217 70.9958 229.808 70.4144 229.808 69.6972C229.801 63.2451 224.483 58.0164 217.921 58.0093Z" fill="#523003"/>
</g>
<g filter="url(#filter3_d_326_2575)">
<path d="M44.34 63.8281V55.2841C44.34 54.5161 44.132 53.9641 43.716 53.6281C43.3 53.2921 42.66 53.1241 41.796 53.1241C40.964 53.1241 40.148 53.2521 39.348 53.5081C38.564 53.7481 37.884 54.0361 37.308 54.3721V51.3961C37.772 51.1721 38.428 50.9481 39.276 50.7241C40.124 50.4841 41.1 50.3641 42.204 50.3641C43.052 50.3641 43.812 50.4681 44.484 50.6761C45.172 50.8841 45.668 51.2921 45.972 51.9001C46.644 52.1081 47.124 52.5161 47.412 53.1241C47.716 53.7161 47.868 54.4841 47.868 55.4281V63.8281H44.34ZM40.404 64.0681C39.028 64.0681 37.964 63.7401 37.212 63.0841C36.476 62.4281 36.108 61.5081 36.108 60.3241C36.108 59.0441 36.564 58.0201 37.476 57.2521C38.404 56.4841 39.86 56.0201 41.844 55.8601L44.916 55.6201V58.2121L42.252 58.4761C41.292 58.5721 40.62 58.7641 40.236 59.0521C39.868 59.3401 39.684 59.7241 39.684 60.2041C39.684 60.6841 39.836 61.0441 40.14 61.2841C40.46 61.5241 40.868 61.6441 41.364 61.6441C41.556 61.6441 41.748 61.6281 41.94 61.5961C42.132 61.5481 42.308 61.5001 42.468 61.4521L42.78 63.7081C42.476 63.8201 42.116 63.9081 41.7 63.9721C41.284 64.0361 40.852 64.0681 40.404 64.0681ZM45.9 53.2921L43.932 51.6361C44.492 51.4441 44.932 51.2041 45.252 50.9161C45.572 50.6121 45.74 50.2441 45.756 49.8121H48.9C48.9 50.3081 48.796 50.7881 48.588 51.2521C48.396 51.7001 48.076 52.1001 47.628 52.4521C47.196 52.8041 46.62 53.0841 45.9 53.2921ZM54.7695 63.8281V55.1401C54.7695 54.4681 54.6095 53.9801 54.2895 53.6761C53.9855 53.3721 53.4815 53.2201 52.7775 53.2201C52.2495 53.2201 51.7615 53.2921 51.3135 53.4361C50.8815 53.5801 50.4735 53.7561 50.0895 53.9641V51.0841C50.4415 50.9241 50.9375 50.7641 51.5775 50.6041C52.2175 50.4441 52.9695 50.3641 53.8335 50.3641C54.7135 50.3641 55.4895 50.4921 56.1615 50.7481C56.8495 51.0041 57.3855 51.4361 57.7695 52.0441C58.1695 52.6361 58.3695 53.4521 58.3695 54.4921V63.8281H54.7695ZM66.2312 64.1401C65.2872 64.1401 64.3352 64.0361 63.3752 63.8281C62.4312 63.6201 61.5912 63.3241 60.8552 62.9401L61.8632 60.0841C62.1832 60.2601 62.5672 60.4441 63.0152 60.6361C63.4632 60.8281 63.9512 60.9881 64.4792 61.1161C65.0072 61.2441 65.5432 61.3081 66.0872 61.3081C66.7272 61.3081 67.2072 61.2201 67.5272 61.0441C67.8632 60.8521 68.0312 60.5641 68.0312 60.1801C68.0312 59.8921 67.9192 59.6601 67.6952 59.4841C67.4872 59.2921 67.1752 59.1161 66.7592 58.9561C66.3432 58.7801 65.8472 58.5961 65.2712 58.4041C64.4232 58.1001 63.6952 57.7721 63.0872 57.4201C62.4792 57.0681 62.0072 56.6361 61.6712 56.1241C61.3512 55.6121 61.1912 54.9721 61.1912 54.2041C61.1912 53.3241 61.4152 52.6041 61.8632 52.0441C62.3112 51.4841 62.9432 51.0681 63.7592 50.7961C64.5752 50.5081 65.5272 50.3641 66.6152 50.3641C67.5112 50.3641 68.3192 50.4361 69.0392 50.5801C69.7592 50.7241 70.3192 50.9081 70.7192 51.1321V53.9641C70.4472 53.8361 70.0872 53.7081 69.6392 53.5801C69.2072 53.4521 68.7352 53.3481 68.2232 53.2681C67.7272 53.1721 67.2472 53.1241 66.7832 53.1241C66.1272 53.1241 65.6312 53.2121 65.2952 53.3881C64.9592 53.5641 64.7912 53.8121 64.7912 54.1321C64.7912 54.3881 64.9032 54.6041 65.1272 54.7801C65.3672 54.9561 65.7112 55.1241 66.1592 55.2841C66.6072 55.4281 67.1432 55.6121 67.7672 55.8361C68.5992 56.1241 69.3032 56.4441 69.8792 56.7961C70.4552 57.1481 70.8872 57.5801 71.1752 58.0921C71.4792 58.6041 71.6312 59.2361 71.6312 59.9881C71.6312 60.7081 71.4632 61.3881 71.1272 62.0281C70.8072 62.6521 70.2552 63.1641 69.4712 63.5641C68.6872 63.9481 67.6072 64.1401 66.2312 64.1401ZM75.2211 63.8281V58.3081H73.8531V56.1001H78.4611V61.0921H78.6291C79.1571 61.0921 79.6051 60.9481 79.9731 60.6601C80.3571 60.3721 80.6451 59.9481 80.8371 59.3881C81.0291 58.8121 81.1251 58.0921 81.1251 57.2281C81.1251 56.2361 80.9811 55.4521 80.6931 54.8761C80.4211 54.2841 80.0131 53.8601 79.4691 53.6041C78.9251 53.3481 78.2531 53.2201 77.4531 53.2201C76.6211 53.2201 75.8691 53.3401 75.1971 53.5801C74.5251 53.8041 73.9251 54.0761 73.3971 54.3961V51.3961C73.9251 51.1241 74.5891 50.8841 75.3891 50.6761C76.1891 50.4681 77.1091 50.3641 78.1491 50.3641C79.7011 50.3641 80.9571 50.6121 81.9171 51.1081C82.8931 51.6041 83.6131 52.3561 84.0771 53.3641C84.5411 54.3721 84.7731 55.6361 84.7731 57.1561C84.7731 58.5801 84.5571 59.7961 84.1251 60.8041C83.7091 61.7961 83.0211 62.5481 82.0611 63.0601C81.1171 63.5721 79.8531 63.8281 78.2691 63.8281H75.2211ZM91.0273 63.8281V55.1401C91.0273 54.4681 90.8673 53.9801 90.5473 53.6761C90.2433 53.3721 89.7393 53.2201 89.0353 53.2201C88.5073 53.2201 88.0193 53.2921 87.5713 53.4361C87.1393 53.5801 86.7313 53.7561 86.3473 53.9641V51.0841C86.6993 50.9241 87.1953 50.7641 87.8353 50.6041C88.4753 50.4441 89.2273 50.3641 90.0913 50.3641C90.9713 50.3641 91.7473 50.4921 92.4193 50.7481C93.1073 51.0041 93.6433 51.4361 94.0273 52.0441C94.4273 52.6361 94.6273 53.4521 94.6273 54.4921V63.8281H91.0273ZM97.857 63.8281V59.8201C97.857 58.8121 98.057 58.0361 98.457 57.4921C98.857 56.9481 99.425 56.5641 100.161 56.3401L100.185 56.2441L97.617 55.3081V54.6841C97.617 53.9001 97.849 53.1801 98.313 52.5241C98.777 51.8681 99.457 51.3481 100.353 50.9641C101.265 50.5641 102.369 50.3641 103.665 50.3641C104.881 50.3641 105.929 50.5561 106.809 50.9401C107.689 51.3081 108.369 51.8681 108.849 52.6201C109.345 53.3561 109.593 54.2921 109.593 55.4281V63.8281H105.993V55.6441C105.993 54.8441 105.777 54.2441 105.345 53.8441C104.929 53.4441 104.337 53.2441 103.569 53.2441C102.833 53.2441 102.281 53.4041 101.913 53.7241C101.545 54.0281 101.345 54.4041 101.313 54.8521L103.449 55.8361L103.185 57.3961C102.609 57.4281 102.177 57.6361 101.889 58.0201C101.601 58.4041 101.457 58.9241 101.457 59.5801V63.8281H97.857ZM117.442 64.0681C116.466 64.0681 115.642 63.8841 114.97 63.5161C114.314 63.1321 113.81 62.5641 113.458 61.8121C113.122 61.0601 112.954 60.1401 112.954 59.0521V50.6761H116.554V58.4281C116.554 59.3081 116.73 59.9481 117.082 60.3481C117.434 60.7481 117.946 60.9481 118.618 60.9481C119.466 60.9481 120.122 60.6281 120.586 59.9881C121.05 59.3321 121.282 58.3241 121.282 56.9641V50.6761H124.882V63.8281H122.146L121.762 61.8121H121.546C121.274 62.4521 120.802 62.9881 120.13 63.4201C119.474 63.8521 118.578 64.0681 117.442 64.0681ZM131.949 63.8281V55.1401C131.949 54.4681 131.789 53.9801 131.469 53.6761C131.165 53.3721 130.661 53.2201 129.957 53.2201C129.429 53.2201 128.941 53.2921 128.493 53.4361C128.061 53.5801 127.653 53.7561 127.269 53.9641V51.0841C127.621 50.9241 128.117 50.7641 128.757 50.6041C129.397 50.4441 130.149 50.3641 131.013 50.3641C131.893 50.3641 132.669 50.4921 133.341 50.7481C134.029 51.0041 134.565 51.4361 134.949 52.0441C135.349 52.6361 135.549 53.4521 135.549 54.4921V63.8281H131.949ZM144.467 64.1401C143.027 64.1401 141.875 63.9721 141.011 63.6361C140.147 63.2841 139.515 62.7961 139.115 62.1721C138.731 61.5481 138.539 60.8281 138.539 60.0121C138.539 59.3081 138.643 58.7401 138.851 58.3081C139.075 57.8761 139.355 57.5481 139.691 57.3241C140.043 57.0841 140.395 56.9241 140.747 56.8441V56.7001C140.379 56.5721 140.027 56.3961 139.691 56.1721C139.355 55.9481 139.075 55.6441 138.851 55.2601C138.643 54.8761 138.539 54.3961 138.539 53.8201C138.539 53.2281 138.675 52.6761 138.947 52.1641C139.235 51.6521 139.691 51.2441 140.315 50.9401C140.939 50.6201 141.763 50.4601 142.787 50.4601C143.283 50.4601 143.763 50.5001 144.227 50.5801C144.691 50.6441 145.051 50.7401 145.307 50.8681L144.755 53.2921C144.627 53.2601 144.451 53.2281 144.227 53.1961C144.019 53.1481 143.803 53.1241 143.579 53.1241C143.083 53.1241 142.715 53.2441 142.475 53.4841C142.235 53.7081 142.115 54.0041 142.115 54.3721C142.115 54.7561 142.219 55.0521 142.427 55.2601C142.635 55.4681 142.899 55.6121 143.219 55.6921C143.555 55.7721 143.899 55.8121 144.251 55.8121H144.755V58.0441H144.251C143.563 58.0441 143.043 58.1641 142.691 58.4041C142.355 58.6441 142.187 59.0361 142.187 59.5801C142.187 59.8681 142.251 60.1561 142.379 60.4441C142.523 60.7161 142.763 60.9481 143.099 61.1401C143.435 61.3161 143.915 61.4041 144.539 61.4041C145.131 61.4041 145.595 61.3161 145.931 61.1401C146.267 60.9641 146.507 60.7321 146.651 60.4441C146.795 60.1401 146.867 59.8041 146.867 59.4361V50.6761H150.467V59.3161C150.467 60.9641 149.979 62.1801 149.003 62.9641C148.043 63.7481 146.531 64.1401 144.467 64.1401ZM153.709 63.8281V59.8201C153.709 58.8121 153.909 58.0361 154.309 57.4921C154.709 56.9481 155.277 56.5641 156.013 56.3401L156.037 56.2441L153.469 55.3081V54.6841C153.469 53.9001 153.701 53.1801 154.165 52.5241C154.629 51.8681 155.309 51.3481 156.205 50.9641C157.117 50.5641 158.221 50.3641 159.517 50.3641C160.733 50.3641 161.781 50.5561 162.661 50.9401C163.541 51.3081 164.221 51.8681 164.701 52.6201C165.197 53.3561 165.445 54.2921 165.445 55.4281V63.8281H161.845V55.6441C161.845 54.8441 161.629 54.2441 161.197 53.8441C160.781 53.4441 160.189 53.2441 159.421 53.2441C158.685 53.2441 158.133 53.4041 157.765 53.7241C157.397 54.0281 157.197 54.4041 157.165 54.8521L159.301 55.8361L159.037 57.3961C158.461 57.4281 158.029 57.6361 157.741 58.0201C157.453 58.4041 157.309 58.9241 157.309 59.5801V63.8281H153.709Z" fill="#523003"/>
</g>
<defs>
<filter id="filter0_d_326_2575" x="0.979889" y="13.8046" width="262.97" height="86.6193" filterUnits="userSpaceOnUse" color-interpolation-filters="sRGB">
<feFlood flood-opacity="0" result="BackgroundImageFix"/>
<feColorMatrix in="SourceAlpha" type="matrix" values="0 0 0 0 0 0 0 0 0 0 0 0 0 0 0 0 0 0 127 0" result="hardAlpha"/>
<feOffset dx="3.26248" dy="2.71874"/>
<feGaussianBlur stdDeviation="2.17499"/>
<feColorMatrix type="matrix" values="0 0 0 0 0 0 0 0 0 0 0 0 0 0 0 0 0 0 0.3 0"/>
<feBlend mode="normal" in2="BackgroundImageFix" result="effect1_dropShadow_326_2575"/>
<feBlend mode="normal" in="SourceGraphic" in2="effect1_dropShadow_326_2575" result="shape"/>
</filter>
<filter id="filter1_d_326_2575" x="-1.35512" y="22.889" width="228.896" height="69.0088" filterUnits="userSpaceOnUse" color-interpolation-filters="sRGB">
<feFlood flood-opacity="0" result="BackgroundImageFix"/>
<feColorMatrix in="SourceAlpha" type="matrix" values="0 0 0 0 0 0 0 0 0 0 0 0 0 0 0 0 0 0 127 0" result="hardAlpha"/>
<feOffset dx="4.06536" dy="3.3878"/>
<feGaussianBlur stdDeviation="2.71024"/>
<feColorMatrix type="matrix" values="0 0 0 0 0 0 0 0 0 0 0 0 0 0 0 0 0 0 0.3 0"/>
<feBlend mode="normal" in2="BackgroundImageFix" result="effect1_dropShadow_326_2575"/>
<feBlend mode="normal" in="SourceGraphic" in2="effect1_dropShadow_326_2575" result="shape"/>
</filter>
<filter id="filter2_d_326_2575" x="204.68" y="39.8281" width="29.1939" height="36.5882" filterUnits="userSpaceOnUse" color-interpolation-filters="sRGB">
<feFlood flood-opacity="0" result="BackgroundImageFix"/>
<feColorMatrix in="SourceAlpha" type="matrix" values="0 0 0 0 0 0 0 0 0 0 0 0 0 0 0 0 0 0 127 0" result="hardAlpha"/>
<feOffset dx="1.35512" dy="2.71024"/>
<feGaussianBlur stdDeviation="1.35512"/>
<feComposite in2="hardAlpha" operator="out"/>
<feColorMatrix type="matrix" values="0 0 0 0 0 0 0 0 0 0 0 0 0 0 0 0 0 0 0.25 0"/>
<feBlend mode="normal" in2="BackgroundImageFix" result="effect1_dropShadow_326_2575"/>
<feBlend mode="normal" in="SourceGraphic" in2="effect1_dropShadow_326_2575" result="shape"/>
</filter>
<filter id="filter3_d_326_2575" x="34.7528" y="49.8121" width="134.757" height="19.7485" filterUnits="userSpaceOnUse" color-interpolation-filters="sRGB">
<feFlood flood-opacity="0" result="BackgroundImageFix"/>
<feColorMatrix in="SourceAlpha" type="matrix" values="0 0 0 0 0 0 0 0 0 0 0 0 0 0 0 0 0 0 127 0" result="hardAlpha"/>
<feOffset dx="1.35512" dy="2.71024"/>
<feGaussianBlur stdDeviation="1.35512"/>
<feComposite in2="hardAlpha" operator="out"/>
<feColorMatrix type="matrix" values="0 0 0 0 0 0 0 0 0 0 0 0 0 0 0 0 0 0 0.25 0"/>
<feBlend mode="normal" in2="BackgroundImageFix" result="effect1_dropShadow_326_2575"/>
<feBlend mode="normal" in="SourceGraphic" in2="effect1_dropShadow_326_2575" result="shape"/>
</filter>
<linearGradient id="paint0_linear_326_2575" x1="109.005" y1="18.7656" x2="109.156" y2="153.238" gradientUnits="userSpaceOnUse">
<stop stop-color="#D39B2C"/>
<stop offset="0.135417" stop-color="#FAE370"/>
<stop offset="0.271006" stop-color="#F9CC42"/>
<stop offset="0.502278" stop-color="#FFF1A7"/>
</linearGradient>
<linearGradient id="paint1_linear_326_2575" x1="113.533" y1="31.7876" x2="113.533" y2="64.1246" gradientUnits="userSpaceOnUse">
<stop stop-color="white"/>
<stop offset="0.11" stop-color="white" stop-opacity="0.88"/>
<stop offset="0.44" stop-color="white" stop-opacity="0.51"/>
<stop offset="0.71" stop-color="white" stop-opacity="0.23"/>
<stop offset="0.9" stop-color="white" stop-opacity="0.06"/>
<stop offset="1" stop-color="white" stop-opacity="0"/>
</linearGradient>
<radialGradient id="paint2_radial_326_2575" cx="0" cy="0" r="1" gradientUnits="userSpaceOnUse" gradientTransform="translate(109.244 81.0766) scale(78.3929 9.23959)">
<stop stop-color="white"/>
<stop offset="0.11" stop-color="white" stop-opacity="0.86"/>
<stop offset="0.36" stop-color="white" stop-opacity="0.56"/>
<stop offset="0.58" stop-color="white" stop-opacity="0.32"/>
<stop offset="0.77" stop-color="white" stop-opacity="0.15"/>
<stop offset="0.91" stop-color="white" stop-opacity="0.04"/>
<stop offset="1" stop-color="white" stop-opacity="0"/>
</radialGradient>
<linearGradient id="paint3_linear_326_2575" x1="217.502" y1="15.7094" x2="217.502" y2="109.198" gradientUnits="userSpaceOnUse">
<stop stop-color="white"/>
<stop offset="0.67" stop-color="#CCCCCC"/>
<stop offset="1" stop-color="#A5A5A5"/>
</linearGradient>
<linearGradient id="paint4_linear_326_2575" x1="188.77" y1="25.1201" x2="297.725" y2="133.691" gradientUnits="userSpaceOnUse">
<stop stop-color="#D39B2C"/>
<stop offset="0.135417" stop-color="#FAE370"/>
<stop offset="0.271006" stop-color="#F9CC42"/>
<stop offset="0.502278" stop-color="#FFF1A7"/>
</linearGradient>
</defs>
</svg>
