<svg width="272" height="107" viewBox="0 0 272 107" fill="none" xmlns="http://www.w3.org/2000/svg">
<g filter="url(#filter0_d_326_2543)">
<path d="M219.093 94.0851C209.83 94.0851 200.857 90.8187 193.722 84.8488H31.2563C14.3023 84.8488 0.516602 70.9026 0.516602 53.7512C0.516602 36.5998 14.3023 22.6536 31.2563 22.6536H193.734C200.869 16.6959 209.83 13.4173 219.105 13.4173C241.089 13.4173 258.975 31.5107 258.975 53.7512C258.975 75.9917 241.089 94.0851 219.105 94.0851H219.093Z" fill="#E8E8E8"/>
</g>
<path d="M219.093 16.12C209.757 16.12 201.232 19.6065 194.702 25.3563H31.2561C15.7532 25.3563 3.17676 38.0669 3.17676 53.7625C3.17676 69.4458 15.7411 82.1687 31.2561 82.1687H194.702C201.232 87.9184 209.757 91.405 219.093 91.405C239.638 91.405 256.29 74.5594 256.29 53.7747C256.29 32.99 239.638 16.1444 219.093 16.1444V16.12Z" fill="url(#paint0_linear_326_2543)"/>
<path d="M216.118 25.3444H31.2561C15.7532 25.3444 3.17676 38.055 3.17676 53.7506C3.17676 69.4339 15.7411 82.1568 31.2561 82.1568H216.13C231.633 82.1568 244.209 69.4462 244.209 53.7506C244.209 38.0672 231.645 25.3444 216.13 25.3444H216.118Z" fill="url(#paint1_linear_326_2543)"/>
<path style="mix-blend-mode:overlay" opacity="0.5" d="M200.071 32.4146H31.643C21.9688 32.4146 14.1206 40.3541 14.1206 50.1409C14.1206 59.9277 21.9688 67.8673 31.643 67.8673H200.071C209.745 67.8673 217.593 59.9277 217.593 50.1409C217.593 40.3541 209.745 32.4146 200.071 32.4146Z" fill="url(#paint2_linear_326_2543)"/>
<path d="M245.394 80.3553C259.921 65.6597 259.921 41.8336 245.394 27.138C230.868 12.4425 207.316 12.4425 192.789 27.138C178.263 41.8336 178.263 65.6597 192.789 80.3553C207.316 95.0508 230.868 95.0508 245.394 80.3553Z" fill="url(#paint3_linear_326_2543)"/>
<path style="mix-blend-mode:overlay" d="M123.693 94.7201C175.346 94.7201 217.218 89.0951 217.218 82.1563C217.218 75.2174 175.346 69.5924 123.693 69.5924C72.0406 69.5924 30.168 75.2174 30.168 82.1563C30.168 89.0951 72.0406 94.7201 123.693 94.7201Z" fill="url(#paint4_radial_326_2543)"/>
<path d="M240.859 76.9804C252.799 64.9019 252.799 45.3188 240.859 33.2404C228.92 21.1619 209.562 21.1619 197.623 33.2404C185.683 45.3189 185.683 64.9019 197.623 76.9804C209.562 89.0589 228.92 89.0589 240.859 76.9804Z" fill="url(#paint5_linear_326_2543)"/>
<g clip-path="url(#clip0_326_2543)">
<g filter="url(#filter1_d_326_2543)">
<path d="M206.833 50.8383V65.067C206.833 68.3361 209.493 70.9957 212.762 70.9957H224.619C227.888 70.9957 230.548 68.3361 230.548 65.067V50.8383H206.833ZM218.69 63.8813H213.947C213.293 63.8813 212.762 63.3513 212.762 62.6956C212.762 62.0398 213.293 61.5098 213.947 61.5098H218.69C219.345 61.5098 219.876 62.0398 219.876 62.6956C219.876 63.3513 219.345 63.8813 218.69 63.8813ZM223.433 57.9526H213.947C213.293 57.9526 212.762 57.4226 212.762 56.7669C212.762 56.1112 213.293 55.5812 213.947 55.5812H223.433C224.088 55.5812 224.619 56.1112 224.619 56.7669C224.619 57.4226 224.088 57.9526 223.433 57.9526ZM230.548 48.4668H206.833C206.833 45.1977 209.493 42.5381 212.762 42.5381H224.619C227.888 42.5381 230.548 45.1977 230.548 48.4668Z" fill="#693708"/>
</g>
</g>
<g filter="url(#filter2_d_326_2543)">
<path d="M24.5887 62.7359C23.4983 62.7359 22.6152 62.5285 21.9394 62.1139C21.279 61.6992 20.8106 61.1693 20.5342 60.5243H20.3499L19.9813 62.5055H17.3551V49.8812H20.8106V55.9169C20.8106 56.7923 20.9104 57.5141 21.1101 58.0824C21.3098 58.6353 21.6016 59.0499 21.9855 59.3264C22.3695 59.6028 22.8302 59.741 23.3677 59.741C24.0128 59.741 24.5042 59.5491 24.8421 59.1651C25.18 58.7812 25.3489 58.1669 25.3489 57.3222V49.8812H28.8045V58.0824C28.8045 59.0807 28.6432 59.9253 28.3207 60.6165C28.0135 61.3076 27.5451 61.8374 26.9154 62.206C26.2858 62.5592 25.5102 62.7359 24.5887 62.7359ZM35.3812 62.5055V54.1661C35.3812 53.521 35.2276 53.0526 34.9204 52.7608C34.6286 52.469 34.1449 52.3231 33.4691 52.3231C32.9623 52.3231 32.4939 52.3922 32.0639 52.5305C31.6492 52.6687 31.2576 52.8376 30.889 53.0373V50.2728C31.2268 50.1192 31.7029 49.9657 32.3173 49.8121C32.9316 49.6585 33.6534 49.5817 34.4827 49.5817C35.3274 49.5817 36.0723 49.7046 36.7173 49.9503C37.3777 50.196 37.8922 50.6107 38.2608 51.1943C38.6448 51.7626 38.8367 52.5458 38.8367 53.5441V62.5055H35.3812ZM46.8668 62.7359C45.4999 62.7359 44.4325 62.4594 43.6646 61.9065C42.9121 61.3383 42.3822 60.555 42.0751 59.5568C41.7833 58.5431 41.6374 57.3682 41.6374 56.0321C41.6374 54.5424 41.7833 53.3291 42.0751 52.3922C42.3669 51.4554 42.8046 50.7643 43.3882 50.3189C43.9871 49.8735 44.7166 49.6508 45.5767 49.6508C46.1142 49.6508 46.5826 49.7583 46.982 49.9733C47.3966 50.173 47.7268 50.5493 47.9725 51.1022H48.0647C48.2797 50.5339 48.6329 50.15 49.1244 49.9503C49.6159 49.7507 50.1457 49.6508 50.714 49.6508C51.7737 49.6508 52.5646 49.9349 53.0868 50.5032C53.6243 51.0714 53.8931 51.9008 53.8931 52.9912V62.5055H50.4375V53.6362C50.4375 53.1601 50.3607 52.8376 50.2071 52.6687C50.0536 52.4997 49.8462 52.4153 49.5851 52.4153C49.2933 52.4153 49.0706 52.4997 48.9171 52.6687C48.7788 52.8376 48.6867 53.1217 48.6406 53.521H47.2814C47.22 53.0757 47.1048 52.7839 46.9359 52.6456C46.7669 52.4921 46.5673 52.4153 46.3369 52.4153C45.953 52.4153 45.6535 52.6917 45.4385 53.2446C45.2388 53.7975 45.139 54.7343 45.139 56.0551C45.139 56.9152 45.2004 57.6524 45.3233 58.2667C45.4615 58.8656 45.6919 59.3264 46.0144 59.6489C46.3369 59.9561 46.7977 60.1096 47.3966 60.1096C47.5809 60.1096 47.7499 60.102 47.9034 60.0866C48.057 60.0559 48.1876 60.0175 48.2951 59.9714L48.6406 62.4364C48.3949 62.5439 48.1261 62.6207 47.8343 62.6668C47.5425 62.7128 47.22 62.7359 46.8668 62.7359ZM61.4561 62.805C60.5499 62.805 59.6361 62.7051 58.7146 62.5055C57.8085 62.3058 57.0022 62.0217 56.2958 61.6531L57.2633 58.9117C57.5705 59.0807 57.9391 59.2573 58.3691 59.4416C58.7991 59.6259 59.2675 59.7794 59.7743 59.9023C60.2812 60.0252 60.7957 60.0866 61.3178 60.0866C61.9322 60.0866 62.3929 60.0021 62.7001 59.8332C63.0226 59.6489 63.1838 59.3725 63.1838 59.0039C63.1838 58.7274 63.0763 58.5047 62.8613 58.3358C62.6617 58.1515 62.3622 57.9826 61.9629 57.829C61.5636 57.66 61.0875 57.4834 60.5346 57.2991C59.7206 57.0073 59.0218 56.6925 58.4382 56.3546C57.8546 56.0167 57.4015 55.6021 57.079 55.1106C56.7719 54.6191 56.6183 54.0048 56.6183 53.2676C56.6183 52.4229 56.8333 51.7318 57.2633 51.1943C57.6933 50.6568 58.3 50.2575 59.0832 49.9964C59.8665 49.7199 60.7803 49.5817 61.8246 49.5817C62.6847 49.5817 63.4603 49.6508 64.1514 49.789C64.8425 49.9273 65.38 50.1039 65.764 50.3189V53.0373C65.5029 52.9144 65.1573 52.7915 64.7273 52.6687C64.3126 52.5458 63.8596 52.446 63.3681 52.3692C62.892 52.277 62.4313 52.231 61.9859 52.231C61.3562 52.231 60.8801 52.3154 60.5576 52.4844C60.2351 52.6533 60.0738 52.8914 60.0738 53.1985C60.0738 53.4443 60.1813 53.6516 60.3963 53.8205C60.6267 53.9895 60.9569 54.1507 61.3869 54.3043C61.817 54.4425 62.3315 54.6191 62.9304 54.8342C63.729 55.1106 64.4048 55.4178 64.9577 55.7556C65.5106 56.0935 65.9252 56.5082 66.2017 56.9996C66.4935 57.4911 66.6394 58.0977 66.6394 58.8196C66.6394 59.5107 66.4781 60.1634 66.1556 60.7777C65.8484 61.3767 65.3186 61.8681 64.5661 62.2521C63.8135 62.6207 62.7768 62.805 61.4561 62.805ZM72.3889 62.5055V54.1661C72.3889 53.521 72.2353 53.0526 71.9282 52.7608C71.6364 52.469 71.1526 52.3231 70.4769 52.3231C69.97 52.3231 69.5016 52.3922 69.0716 52.5305C68.6569 52.6687 68.2653 52.8376 67.8967 53.0373V50.2728C68.2346 50.1192 68.7107 49.9657 69.325 49.8121C69.9393 49.6585 70.6612 49.5817 71.4905 49.5817C72.3352 49.5817 73.08 49.7046 73.7251 49.9503C74.3855 50.196 74.9 50.6107 75.2686 51.1943C75.6525 51.7626 75.8445 52.5458 75.8445 53.5441V62.5055H72.3889ZM78.9446 62.5055V58.6583C78.9446 57.6908 79.1366 56.9459 79.5205 56.4237C79.9045 55.9015 80.4497 55.5329 81.1561 55.3179L81.1792 55.2258L78.7142 54.3273V53.7284C78.7142 52.9758 78.9369 52.2847 79.3823 51.655C79.8277 51.0254 80.4804 50.5262 81.3404 50.1576C82.2158 49.7737 83.2755 49.5817 84.5195 49.5817C85.6868 49.5817 86.6927 49.766 87.5374 50.1346C88.3821 50.4878 89.0348 51.0254 89.4955 51.7472C89.9716 52.4537 90.2097 53.3521 90.2097 54.4425V62.5055H86.7541V54.6499C86.7541 53.882 86.5468 53.306 86.1321 52.9221C85.7328 52.5381 85.1646 52.3462 84.4274 52.3462C83.7209 52.3462 83.1911 52.4997 82.8378 52.8069C82.4846 53.0987 82.2926 53.4596 82.2619 53.8896L84.3122 54.8342L84.0588 56.3316C83.5059 56.3623 83.0913 56.5619 82.8148 56.9305C82.5384 57.2991 82.4001 57.7983 82.4001 58.4279V62.5055H78.9446ZM96.7758 62.5055V54.1661C96.7758 53.521 96.6222 53.0526 96.3151 52.7608C96.0233 52.469 95.5395 52.3231 94.8637 52.3231C94.3569 52.3231 93.8885 52.3922 93.4585 52.5305C93.0438 52.6687 92.6522 52.8376 92.2836 53.0373V50.2728C92.6214 50.1192 93.0975 49.9657 93.7119 49.8121C94.3262 49.6585 95.048 49.5817 95.8773 49.5817C96.722 49.5817 97.4669 49.7046 98.1119 49.9503C98.7723 50.196 99.2868 50.6107 99.6554 51.1943C100.039 51.7626 100.231 52.5458 100.231 53.5441V62.5055H96.7758ZM107.778 62.805C106.871 62.805 105.958 62.7051 105.036 62.5055C104.13 62.3058 103.324 62.0217 102.617 61.6531L103.585 58.9117C103.892 59.0807 104.261 59.2573 104.691 59.4416C105.121 59.6259 105.589 59.7794 106.096 59.9023C106.603 60.0252 107.117 60.0866 107.639 60.0866C108.254 60.0866 108.714 60.0021 109.022 59.8332C109.344 59.6489 109.505 59.3725 109.505 59.0039C109.505 58.7274 109.398 58.5047 109.183 58.3358C108.983 58.1515 108.684 57.9826 108.284 57.829C107.885 57.66 107.409 57.4834 106.856 57.2991C106.042 57.0073 105.343 56.6925 104.76 56.3546C104.176 56.0167 103.723 55.6021 103.401 55.1106C103.093 54.6191 102.94 54.0048 102.94 53.2676C102.94 52.4229 103.155 51.7318 103.585 51.1943C104.015 50.6568 104.622 50.2575 105.405 49.9964C106.188 49.7199 107.102 49.5817 108.146 49.5817C109.006 49.5817 109.782 49.6508 110.473 49.789C111.164 49.9273 111.702 50.1039 112.086 50.3189V53.0373C111.824 52.9144 111.479 52.7915 111.049 52.6687C110.634 52.5458 110.181 52.446 109.69 52.3692C109.214 52.277 108.753 52.231 108.307 52.231C107.678 52.231 107.202 52.3154 106.879 52.4844C106.557 52.6533 106.395 52.8914 106.395 53.1985C106.395 53.4443 106.503 53.6516 106.718 53.8205C106.948 53.9895 107.278 54.1507 107.708 54.3043C108.139 54.4425 108.653 54.6191 109.252 54.8342C110.051 55.1106 110.726 55.4178 111.279 55.7556C111.832 56.0935 112.247 56.5082 112.523 56.9996C112.815 57.4911 112.961 58.0977 112.961 58.8196C112.961 59.5107 112.8 60.1634 112.477 60.7777C112.17 61.3767 111.64 61.8681 110.888 62.2521C110.135 62.6207 109.098 62.805 107.778 62.805ZM116.384 62.7359C115.954 62.7359 115.562 62.6898 115.209 62.5976C114.856 62.5209 114.541 62.4057 114.264 62.2521L114.587 60.34C114.694 60.3707 114.794 60.3938 114.886 60.4091C114.994 60.4245 115.094 60.4322 115.186 60.4322C115.447 60.4322 115.631 60.3707 115.739 60.2479C115.862 60.1096 115.923 59.9023 115.923 59.6259V57.9442C115.923 57.1916 116.077 56.608 116.384 56.1933C116.691 55.7633 117.159 55.4715 117.789 55.3179L117.812 55.2258L115.301 54.3273V53.7284C115.301 52.9758 115.516 52.2847 115.946 51.655C116.376 51.0254 117.021 50.5262 117.881 50.1576C118.741 49.7737 119.801 49.5817 121.06 49.5817C122.243 49.5817 123.264 49.766 124.124 50.1346C124.984 50.4878 125.645 51.0254 126.105 51.7472C126.581 52.4537 126.82 53.3521 126.82 54.4425V62.5055H123.364V54.6499C123.364 53.882 123.157 53.306 122.742 52.9221C122.343 52.5381 121.767 52.3462 121.014 52.3462C120.308 52.3462 119.778 52.4997 119.425 52.8069C119.071 53.0987 118.879 53.4596 118.849 53.8896L120.853 54.7881L120.6 56.2855C120.169 56.2855 119.839 56.4314 119.609 56.7232C119.394 56.9996 119.286 57.4527 119.286 58.0824V60.0175C119.286 61.0004 119.01 61.6992 118.457 62.1139C117.92 62.5285 117.228 62.7359 116.384 62.7359ZM133.379 62.5055V54.1661C133.379 53.521 133.225 53.0526 132.918 52.7608C132.626 52.469 132.142 52.3231 131.467 52.3231C130.96 52.3231 130.491 52.3922 130.061 52.5305C129.647 52.6687 129.255 52.8376 128.886 53.0373V50.2728C129.224 50.1192 129.7 49.9657 130.315 49.8121C130.929 49.6585 131.651 49.5817 132.48 49.5817C133.325 49.5817 134.07 49.7046 134.715 49.9503C135.375 50.196 135.89 50.6107 136.258 51.1943C136.642 51.7626 136.834 52.5458 136.834 53.5441V62.5055H133.379ZM145.394 62.805C144.012 62.805 142.906 62.6437 142.077 62.3212C141.247 61.9833 140.641 61.5149 140.257 60.9159C139.888 60.317 139.704 59.6259 139.704 58.8426C139.704 58.1669 139.804 57.6216 140.003 57.207C140.218 56.7923 140.487 56.4775 140.81 56.2625C141.148 56.0321 141.485 55.8785 141.823 55.8017V55.6635C141.47 55.5406 141.132 55.3717 140.81 55.1567C140.487 54.9417 140.218 54.6499 140.003 54.2813C139.804 53.9127 139.704 53.4519 139.704 52.899C139.704 52.3308 139.834 51.8009 140.096 51.3095C140.372 50.818 140.81 50.4264 141.409 50.1346C142.008 49.8274 142.799 49.6739 143.781 49.6739C144.258 49.6739 144.718 49.7123 145.164 49.789C145.609 49.8505 145.955 49.9426 146.2 50.0655L145.67 52.3922C145.548 52.3615 145.379 52.3308 145.164 52.3001C144.964 52.254 144.757 52.231 144.542 52.231C144.066 52.231 143.712 52.3462 143.482 52.5765C143.252 52.7915 143.136 53.0757 143.136 53.4289C143.136 53.7975 143.236 54.0816 143.436 54.2813C143.636 54.4809 143.889 54.6191 144.196 54.6959C144.519 54.7727 144.849 54.8111 145.187 54.8111H145.67V56.9536H145.187C144.526 56.9536 144.027 57.0688 143.689 57.2991C143.367 57.5295 143.206 57.9058 143.206 58.4279C143.206 58.7044 143.267 58.9808 143.39 59.2573C143.528 59.5184 143.758 59.741 144.081 59.9253C144.403 60.0943 144.864 60.1788 145.463 60.1788C146.031 60.1788 146.477 60.0943 146.799 59.9253C147.122 59.7564 147.352 59.5337 147.49 59.2573C147.629 58.9655 147.698 58.6429 147.698 58.2897V49.8812H151.153V58.1745C151.153 59.7564 150.685 60.9236 149.748 61.6762C148.827 62.4287 147.375 62.805 145.394 62.805ZM157.928 62.7359C157.237 62.7359 156.653 62.6284 156.177 62.4133C155.701 62.1983 155.34 61.8758 155.094 61.4458C154.848 61.0004 154.726 60.4475 154.726 59.7871V51.2634C154.726 50.8641 154.749 50.5339 154.795 50.2728C154.856 50.0117 154.964 49.766 155.117 49.5356C155.271 49.2899 155.494 48.9981 155.785 48.6602C156.092 48.307 156.346 47.9998 156.546 47.7388C156.745 47.4777 156.845 47.1782 156.845 46.8403C156.845 46.4871 156.714 46.2106 156.453 46.011C156.208 45.796 155.816 45.6885 155.279 45.6885C154.864 45.6885 154.495 45.7422 154.173 45.8497C153.85 45.9572 153.558 46.0954 153.297 46.2644V43.7073C153.512 43.5844 153.896 43.4462 154.449 43.2926C155.017 43.1237 155.701 43.0392 156.499 43.0392C157.713 43.0392 158.673 43.2926 159.379 43.7994C160.086 44.3062 160.439 45.0665 160.439 46.0801C160.439 46.6944 160.316 47.2319 160.07 47.6927C159.84 48.1534 159.594 48.5604 159.333 48.9136C159.087 49.2515 158.872 49.5356 158.688 49.766C158.519 49.981 158.389 50.2037 158.296 50.4341C158.22 50.6645 158.181 50.9716 158.181 51.3556V59.3725C158.181 59.6643 158.243 59.8793 158.365 60.0175C158.504 60.1557 158.703 60.2248 158.964 60.2248C159.087 60.2248 159.218 60.2095 159.356 60.1788C159.51 60.148 159.648 60.1096 159.771 60.0636L160.093 62.2751C159.801 62.4287 159.471 62.5439 159.103 62.6207C158.734 62.6975 158.342 62.7359 157.928 62.7359ZM166.337 62.7359C165.4 62.7359 164.609 62.5592 163.964 62.206C163.335 61.8374 162.851 61.2922 162.513 60.5704C162.19 59.8486 162.029 58.9655 162.029 57.9211V49.8812H165.485V57.3222C165.485 58.1669 165.654 58.7812 165.991 59.1651C166.329 59.5491 166.821 59.741 167.466 59.741C168.28 59.741 168.909 59.4339 169.355 58.8196C169.8 58.1899 170.023 57.2223 170.023 55.9169V49.8812H173.479V62.5055H170.852L170.484 60.5704H170.276C170.015 61.1847 169.562 61.6992 168.917 62.1139C168.287 62.5285 167.427 62.7359 166.337 62.7359Z" fill="#523003"/>
</g>
<defs>
<filter id="filter0_d_326_2543" x="-0.570892" y="11.7861" width="267.158" height="89.3677" filterUnits="userSpaceOnUse" color-interpolation-filters="sRGB">
<feFlood flood-opacity="0" result="BackgroundImageFix"/>
<feColorMatrix in="SourceAlpha" type="matrix" values="0 0 0 0 0 0 0 0 0 0 0 0 0 0 0 0 0 0 127 0" result="hardAlpha"/>
<feOffset dx="3.26248" dy="2.71874"/>
<feGaussianBlur stdDeviation="2.17499"/>
<feColorMatrix type="matrix" values="0 0 0 0 0 0 0 0 0 0 0 0 0 0 0 0 0 0 0.3 0"/>
<feBlend mode="normal" in2="BackgroundImageFix" result="effect1_dropShadow_326_2543"/>
<feBlend mode="normal" in="SourceGraphic" in2="effect1_dropShadow_326_2543" result="shape"/>
</filter>
<filter id="filter1_d_326_2543" x="205.478" y="42.5381" width="29.1348" height="33.878" filterUnits="userSpaceOnUse" color-interpolation-filters="sRGB">
<feFlood flood-opacity="0" result="BackgroundImageFix"/>
<feColorMatrix in="SourceAlpha" type="matrix" values="0 0 0 0 0 0 0 0 0 0 0 0 0 0 0 0 0 0 127 0" result="hardAlpha"/>
<feOffset dx="1.35512" dy="2.71024"/>
<feGaussianBlur stdDeviation="1.35512"/>
<feComposite in2="hardAlpha" operator="out"/>
<feColorMatrix type="matrix" values="0 0 0 0 0 0 0 0 0 0 0 0 0 0 0 0 0 0 0.25 0"/>
<feBlend mode="normal" in2="BackgroundImageFix" result="effect1_dropShadow_326_2543"/>
<feBlend mode="normal" in="SourceGraphic" in2="effect1_dropShadow_326_2543" result="shape"/>
</filter>
<filter id="filter2_d_326_2543" x="15.9999" y="43.0392" width="161.544" height="25.1863" filterUnits="userSpaceOnUse" color-interpolation-filters="sRGB">
<feFlood flood-opacity="0" result="BackgroundImageFix"/>
<feColorMatrix in="SourceAlpha" type="matrix" values="0 0 0 0 0 0 0 0 0 0 0 0 0 0 0 0 0 0 127 0" result="hardAlpha"/>
<feOffset dx="1.35512" dy="2.71024"/>
<feGaussianBlur stdDeviation="1.35512"/>
<feComposite in2="hardAlpha" operator="out"/>
<feColorMatrix type="matrix" values="0 0 0 0 0 0 0 0 0 0 0 0 0 0 0 0 0 0 0.25 0"/>
<feBlend mode="normal" in2="BackgroundImageFix" result="effect1_dropShadow_326_2543"/>
<feBlend mode="normal" in="SourceGraphic" in2="effect1_dropShadow_326_2543" result="shape"/>
</filter>
<linearGradient id="paint0_linear_326_2543" x1="129.739" y1="15.7163" x2="129.739" y2="109.205" gradientUnits="userSpaceOnUse">
<stop stop-color="white"/>
<stop offset="0.67" stop-color="#CCCCCC"/>
<stop offset="1" stop-color="#A5A5A5"/>
</linearGradient>
<linearGradient id="paint1_linear_326_2543" x1="123.662" y1="16.8225" x2="123.809" y2="157.717" gradientUnits="userSpaceOnUse">
<stop stop-color="#D39B2C"/>
<stop offset="0.135417" stop-color="#FAE370"/>
<stop offset="0.271006" stop-color="#F9CC42"/>
<stop offset="0.502278" stop-color="#FFF1A7"/>
</linearGradient>
<linearGradient id="paint2_linear_326_2543" x1="115.857" y1="32.231" x2="115.857" y2="76.2594" gradientUnits="userSpaceOnUse">
<stop stop-color="white"/>
<stop offset="0.11" stop-color="white" stop-opacity="0.88"/>
<stop offset="0.44" stop-color="white" stop-opacity="0.51"/>
<stop offset="0.71" stop-color="white" stop-opacity="0.23"/>
<stop offset="0.9" stop-color="white" stop-opacity="0.06"/>
<stop offset="1" stop-color="white" stop-opacity="0"/>
</linearGradient>
<linearGradient id="paint3_linear_326_2543" x1="219.094" y1="15.7094" x2="219.094" y2="109.198" gradientUnits="userSpaceOnUse">
<stop stop-color="white"/>
<stop offset="0.67" stop-color="#CCCCCC"/>
<stop offset="1" stop-color="#A5A5A5"/>
</linearGradient>
<radialGradient id="paint4_radial_326_2543" cx="0" cy="0" r="1" gradientUnits="userSpaceOnUse" gradientTransform="translate(124.255 83.683) scale(93.6703 12.6348)">
<stop stop-color="white"/>
<stop offset="0.11" stop-color="white" stop-opacity="0.86"/>
<stop offset="0.36" stop-color="white" stop-opacity="0.56"/>
<stop offset="0.58" stop-color="white" stop-opacity="0.32"/>
<stop offset="0.77" stop-color="white" stop-opacity="0.15"/>
<stop offset="0.91" stop-color="white" stop-opacity="0.04"/>
<stop offset="1" stop-color="white" stop-opacity="0"/>
</radialGradient>
<linearGradient id="paint5_linear_326_2543" x1="191.132" y1="26.6849" x2="300.064" y2="133.419" gradientUnits="userSpaceOnUse">
<stop stop-color="#D39B2C"/>
<stop offset="0.135417" stop-color="#FAE370"/>
<stop offset="0.271006" stop-color="#F9CC42"/>
<stop offset="0.502278" stop-color="#FFF1A7"/>
</linearGradient>
<clipPath id="clip0_326_2543">
<rect width="28.4575" height="28.4575" fill="white" transform="translate(204.462 42.5381)"/>
</clipPath>
</defs>
</svg>
