<svg width="272" height="108" viewBox="0 0 272 108" fill="none" xmlns="http://www.w3.org/2000/svg">
<g filter="url(#filter0_d_326_2554)">
<path d="M218.576 94.512C209.313 94.512 200.34 91.2457 193.206 85.2757H30.7397C13.7857 85.2757 0 71.3295 0 54.1782C0 37.0268 13.7857 23.0806 30.7397 23.0806H193.218C200.352 17.1229 209.313 13.8443 218.588 13.8443C240.573 13.8443 258.458 31.9376 258.458 54.1782C258.458 76.4187 240.573 94.512 218.588 94.512H218.576Z" fill="#E8E8E8"/>
</g>
<path d="M218.576 16.5472C209.24 16.5472 200.715 20.0338 194.185 25.7835H30.7395C15.2366 25.7835 2.66016 38.4942 2.66016 54.1897C2.66016 69.8731 15.2245 82.596 30.7395 82.596H194.185C200.715 88.3457 209.24 91.8323 218.576 91.8323C239.122 91.8323 255.773 74.9867 255.773 54.202C255.773 33.4172 239.122 16.5717 218.576 16.5717V16.5472Z" fill="url(#paint0_linear_326_2554)"/>
<path d="M215.601 25.7717H30.7395C15.2366 25.7717 2.66016 38.4823 2.66016 54.1779C2.66016 69.8613 15.2245 82.5841 30.7395 82.5841H215.613C231.116 82.5841 243.693 69.8735 243.693 54.1779C243.693 38.4946 231.128 25.7717 215.613 25.7717H215.601Z" fill="url(#paint1_linear_326_2554)"/>
<path style="mix-blend-mode:overlay" opacity="0.5" d="M199.554 32.8424H31.1269C21.4527 32.8424 13.6045 40.782 13.6045 50.5688C13.6045 60.3556 21.4527 68.2951 31.1269 68.2951H199.554C209.229 68.2951 217.077 60.3556 217.077 50.5688C217.077 40.782 209.229 32.8424 199.554 32.8424Z" fill="url(#paint2_linear_326_2554)"/>
<path d="M244.877 80.7823C259.403 66.0867 259.403 42.2606 244.877 27.565C230.351 12.8695 206.799 12.8695 192.272 27.565C177.746 42.2606 177.746 66.0867 192.272 80.7823C206.799 95.4778 230.351 95.4778 244.877 80.7823Z" fill="url(#paint3_linear_326_2554)"/>
<path d="M240.053 75.8425C251.992 63.764 251.992 44.181 240.053 32.1025C228.113 20.024 208.756 20.024 196.816 32.1025C184.877 44.181 184.877 63.764 196.816 75.8425C208.756 87.921 228.113 87.921 240.053 75.8425Z" fill="url(#paint4_linear_326_2554)"/>
<path style="mix-blend-mode:overlay" d="M123.177 95.1475C174.829 95.1475 216.702 89.5225 216.702 82.5837C216.702 75.6449 174.829 70.0199 123.177 70.0199C71.524 70.0199 29.6514 75.6449 29.6514 82.5837C29.6514 89.5225 71.524 95.1475 123.177 95.1475Z" fill="url(#paint5_radial_326_2554)"/>
<g filter="url(#filter1_d_326_2554)">
<path d="M201.269 65.5773V45.8665H214.551V49.3024H205.436V53.9992H213.867V57.4351H205.436V62.1414H214.589V65.5773H201.269ZM222.031 45.8665V65.5773H217.864V45.8665H222.031ZM224.709 49.3024V45.8665H240.898V49.3024H234.863V65.5773H230.744V49.3024H224.709Z" fill="#693708"/>
</g>
<g filter="url(#filter2_d_326_2554)">
<path d="M29.1968 64.4952C28.4768 64.4952 27.8688 64.3832 27.3728 64.1592C26.8768 63.9352 26.5008 63.5992 26.2448 63.1512C25.9888 62.6872 25.8608 62.1112 25.8608 61.4232V51.1032H29.4608V60.9912C29.4608 61.2952 29.5248 61.5192 29.6528 61.6632C29.7968 61.8072 30.0128 61.8792 30.3008 61.8792C30.4288 61.8792 30.5648 61.8632 30.7088 61.8312C30.8528 61.7992 30.9888 61.7592 31.1168 61.7112L31.4528 64.0152C31.1488 64.1752 30.8048 64.2952 30.4208 64.3752C30.0368 64.4552 29.6288 64.4952 29.1968 64.4952ZM36.4208 64.4952C35.7008 64.4952 35.0928 64.3832 34.5968 64.1592C34.1008 63.9352 33.7248 63.5992 33.4688 63.1512C33.2128 62.6872 33.0848 62.1112 33.0848 61.4232V51.1032H36.6848V60.9912C36.6848 61.2952 36.7488 61.5192 36.8768 61.6632C37.0208 61.8072 37.2368 61.8792 37.5248 61.8792C37.6528 61.8792 37.7888 61.8632 37.9328 61.8312C38.0768 61.7992 38.2128 61.7592 38.3408 61.7112L38.6768 64.0152C38.3728 64.1752 38.0288 64.2952 37.6448 64.3752C37.2608 64.4552 36.8528 64.4952 36.4208 64.4952ZM46.6632 64.5672C44.5832 64.5672 43.0712 64.0872 42.1272 63.1272C41.1992 62.1512 40.7352 60.7432 40.7352 58.9032V51.1032H44.3352V59.0952C44.3352 59.9432 44.5192 60.5912 44.8872 61.0392C45.2712 61.4712 45.8632 61.6872 46.6632 61.6872C47.4632 61.6872 48.0472 61.4712 48.4152 61.0392C48.7992 60.5912 48.9912 59.9432 48.9912 59.0952V51.1032H52.5912V58.9032C52.5912 60.7432 52.1192 62.1512 51.1752 63.1272C50.2472 64.0872 48.7432 64.5672 46.6632 64.5672ZM61.8741 64.5672C59.7941 64.5672 58.2821 64.0872 57.3381 63.1272C56.4101 62.1512 55.9461 60.7432 55.9461 58.9032V51.1032H59.5461V59.0952C59.5461 59.9432 59.7301 60.5912 60.0981 61.0392C60.4821 61.4712 61.0741 61.6872 61.8741 61.6872C62.6741 61.6872 63.2581 61.4712 63.6261 61.0392C64.0101 60.5912 64.2021 59.9432 64.2021 59.0952V51.1032H67.8021V58.9032C67.8021 60.7432 67.3301 62.1512 66.3861 63.1272C65.4581 64.0872 63.9541 64.5672 61.8741 64.5672ZM74.6611 64.5672C73.8451 64.5672 73.0771 64.4712 72.3571 64.2792C71.6371 64.1032 70.9651 63.8472 70.3411 63.5112L71.3011 60.8952C71.6531 61.1032 72.0771 61.2872 72.5731 61.4472C73.0691 61.6072 73.5571 61.6872 74.0371 61.6872C74.9331 61.6872 75.6451 61.3512 76.1731 60.6792C76.7011 59.9912 76.9651 58.9672 76.9651 57.6072C76.9651 56.3272 76.7011 55.3512 76.1731 54.6792C75.6451 54.0072 74.8211 53.6712 73.7011 53.6712C73.1731 53.6712 72.6291 53.7512 72.0691 53.9112C71.5091 54.0552 71.0451 54.2392 70.6771 54.4632V51.5112C71.1731 51.2872 71.7331 51.1112 72.3571 50.9832C72.9811 50.8552 73.6451 50.7912 74.3491 50.7912C75.8211 50.7912 77.0211 51.0632 77.9491 51.6072C78.8771 52.1512 79.5571 52.9352 79.9891 53.9592C80.4211 54.9672 80.6371 56.1832 80.6371 57.6072C80.6371 59.8792 80.1171 61.6072 79.0771 62.7912C78.0371 63.9752 76.5651 64.5672 74.6611 64.5672ZM76.9677 49.2792C76.2157 49.2792 75.6237 49.1672 75.1917 48.9432C74.7597 48.7192 74.4557 48.4392 74.2797 48.1032C74.0877 47.7512 73.9917 47.3832 73.9917 46.9992C73.9917 46.7272 74.0317 46.4392 74.1117 46.1352C74.1917 45.8152 74.3117 45.5192 74.4717 45.2472L77.0877 45.5832C77.0557 45.6952 77.0317 45.8152 77.0157 45.9432C76.9837 46.0552 76.9677 46.1592 76.9677 46.2552C76.9677 46.4792 77.0397 46.6552 77.1837 46.7832C77.3117 46.8952 77.5357 46.9512 77.8557 46.9512H83.0157V49.2792H76.9677ZM88.2132 64.4952C86.9172 64.4952 85.8852 64.2152 85.1172 63.6552C84.3492 63.0792 83.7972 62.2952 83.4612 61.3032C83.1252 60.2952 82.9572 59.1432 82.9572 57.8472C82.9572 56.4552 83.1092 55.3032 83.4132 54.3912C83.7332 53.4632 84.1812 52.7432 84.7572 52.2312C85.3332 51.7032 86.0132 51.3352 86.7972 51.1272C87.5972 50.9032 88.4692 50.7912 89.4132 50.7912C90.8532 50.7912 92.0052 50.9912 92.8692 51.3912C93.7332 51.7912 94.3572 52.3592 94.7412 53.0952C95.1412 53.8312 95.3412 54.6952 95.3412 55.6872V64.2552H91.7412V55.9752C91.7412 55.2232 91.5572 54.6552 91.1892 54.2712C90.8372 53.8712 90.2452 53.6712 89.4132 53.6712C88.8532 53.6712 88.3572 53.7912 87.9252 54.0312C87.5092 54.2552 87.1812 54.6632 86.9412 55.2552C86.7172 55.8472 86.6052 56.6952 86.6052 57.7992C86.6052 58.5512 86.6772 59.2152 86.8212 59.7912C86.9652 60.3672 87.1972 60.8152 87.5172 61.1352C87.8532 61.4552 88.3012 61.6152 88.8612 61.6152C89.0372 61.6152 89.2052 61.6072 89.3652 61.5912C89.5412 61.5592 89.6932 61.5272 89.8212 61.4952L90.1572 64.1832C89.9012 64.2952 89.5892 64.3752 89.2212 64.4232C88.8692 64.4712 88.5332 64.4952 88.2132 64.4952ZM98.5761 64.2552V60.2472C98.5761 59.2392 98.7761 58.4632 99.1761 57.9192C99.5761 57.3752 100.144 56.9912 100.88 56.7672L100.904 56.6712L98.3361 55.7352V55.1112C98.3361 54.3272 98.5681 53.6072 99.0321 52.9512C99.4961 52.2952 100.176 51.7752 101.072 51.3912C101.984 50.9912 103.088 50.7912 104.384 50.7912C105.6 50.7912 106.648 50.9832 107.528 51.3672C108.408 51.7352 109.088 52.2952 109.568 53.0472C110.064 53.7832 110.312 54.7192 110.312 55.8552V64.2552H106.712V56.0712C106.712 55.2712 106.496 54.6712 106.064 54.2712C105.648 53.8712 105.056 53.6712 104.288 53.6712C103.552 53.6712 103 53.8312 102.632 54.1512C102.264 54.4552 102.064 54.8312 102.032 55.2792L104.168 56.2632L103.904 57.8232C103.328 57.8552 102.896 58.0632 102.608 58.4472C102.32 58.8312 102.176 59.3512 102.176 60.0072V64.2552H98.5761ZM117.153 64.2552V55.5672C117.153 54.8952 116.993 54.4072 116.673 54.1032C116.369 53.7992 115.865 53.6472 115.161 53.6472C114.633 53.6472 114.145 53.7192 113.697 53.8632C113.265 54.0072 112.857 54.1832 112.473 54.3912V51.5112C112.825 51.3512 113.321 51.1912 113.961 51.0312C114.601 50.8712 115.353 50.7912 116.217 50.7912C117.097 50.7912 117.873 50.9192 118.545 51.1752C119.233 51.4312 119.769 51.8632 120.153 52.4712C120.553 53.0632 120.753 53.8792 120.753 54.9192V64.2552H117.153ZM128.614 64.5672C127.67 64.5672 126.718 64.4632 125.758 64.2552C124.814 64.0472 123.974 63.7512 123.238 63.3672L124.246 60.5112C124.566 60.6872 124.95 60.8712 125.398 61.0632C125.846 61.2552 126.334 61.4152 126.862 61.5432C127.39 61.6712 127.926 61.7352 128.47 61.7352C129.11 61.7352 129.59 61.6472 129.91 61.4712C130.246 61.2792 130.414 60.9912 130.414 60.6072C130.414 60.3192 130.302 60.0872 130.078 59.9112C129.87 59.7192 129.558 59.5432 129.142 59.3832C128.726 59.2072 128.23 59.0232 127.654 58.8312C126.806 58.5272 126.078 58.1992 125.47 57.8472C124.862 57.4952 124.39 57.0632 124.054 56.5512C123.734 56.0392 123.574 55.3992 123.574 54.6312C123.574 53.7512 123.798 53.0312 124.246 52.4712C124.694 51.9112 125.326 51.4952 126.142 51.2232C126.958 50.9352 127.91 50.7912 128.998 50.7912C129.894 50.7912 130.702 50.8632 131.422 51.0072C132.142 51.1512 132.702 51.3352 133.102 51.5592V54.3912C132.83 54.2632 132.47 54.1352 132.022 54.0072C131.59 53.8792 131.118 53.7752 130.606 53.6952C130.11 53.5992 129.63 53.5512 129.166 53.5512C128.51 53.5512 128.014 53.6392 127.678 53.8152C127.342 53.9912 127.174 54.2392 127.174 54.5592C127.174 54.8152 127.286 55.0312 127.51 55.2072C127.75 55.3832 128.094 55.5512 128.542 55.7112C128.99 55.8552 129.526 56.0392 130.15 56.2632C130.982 56.5512 131.686 56.8712 132.262 57.2232C132.838 57.5752 133.27 58.0072 133.558 58.5192C133.862 59.0312 134.014 59.6632 134.014 60.4152C134.014 61.1352 133.846 61.8152 133.51 62.4552C133.19 63.0792 132.638 63.5912 131.854 63.9912C131.07 64.3752 129.99 64.5672 128.614 64.5672ZM141.036 64.5672C140.092 64.5672 139.14 64.4632 138.18 64.2552C137.236 64.0472 136.396 63.7512 135.66 63.3672L136.668 60.5112C136.988 60.6872 137.372 60.8712 137.82 61.0632C138.268 61.2552 138.756 61.4152 139.284 61.5432C139.812 61.6712 140.348 61.7352 140.892 61.7352C141.532 61.7352 142.012 61.6472 142.332 61.4712C142.668 61.2792 142.836 60.9912 142.836 60.6072C142.836 60.3192 142.724 60.0872 142.5 59.9112C142.292 59.7192 141.98 59.5432 141.564 59.3832C141.148 59.2072 140.652 59.0232 140.076 58.8312C139.228 58.5272 138.5 58.1992 137.892 57.8472C137.284 57.4952 136.812 57.0632 136.476 56.5512C136.156 56.0392 135.996 55.3992 135.996 54.6312C135.996 53.7512 136.22 53.0312 136.668 52.4712C137.116 51.9112 137.748 51.4952 138.564 51.2232C139.38 50.9352 140.332 50.7912 141.42 50.7912C142.316 50.7912 143.124 50.8632 143.844 51.0072C144.564 51.1512 145.124 51.3352 145.524 51.5592V54.3912C145.252 54.2632 144.892 54.1352 144.444 54.0072C144.012 53.8792 143.54 53.7752 143.028 53.6952C142.532 53.5992 142.052 53.5512 141.588 53.5512C140.932 53.5512 140.436 53.6392 140.1 53.8152C139.764 53.9912 139.596 54.2392 139.596 54.5592C139.596 54.8152 139.708 55.0312 139.932 55.2072C140.172 55.3832 140.516 55.5512 140.964 55.7112C141.412 55.8552 141.948 56.0392 142.572 56.2632C143.404 56.5512 144.108 56.8712 144.684 57.2232C145.26 57.5752 145.692 58.0072 145.98 58.5192C146.284 59.0312 146.436 59.6632 146.436 60.4152C146.436 61.1352 146.268 61.8152 145.932 62.4552C145.612 63.0792 145.06 63.5912 144.276 63.9912C143.492 64.3752 142.412 64.5672 141.036 64.5672ZM142.147 49.2792C141.395 49.2792 140.803 49.1672 140.371 48.9432C139.939 48.7192 139.635 48.4392 139.459 48.1032C139.267 47.7512 139.171 47.3832 139.171 46.9992C139.171 46.7272 139.211 46.4392 139.291 46.1352C139.371 45.8152 139.491 45.5192 139.651 45.2472L142.267 45.5832C142.235 45.6952 142.211 45.8152 142.195 45.9432C142.163 46.0552 142.147 46.1592 142.147 46.2552C142.147 46.4792 142.219 46.6552 142.363 46.7832C142.491 46.8952 142.715 46.9512 143.035 46.9512H148.195V49.2792H142.147ZM154.874 64.5672C152.794 64.5672 151.282 64.0872 150.338 63.1272C149.41 62.1512 148.946 60.7432 148.946 58.9032V51.1032H152.546V59.0952C152.546 59.9432 152.73 60.5912 153.098 61.0392C153.482 61.4712 154.074 61.6872 154.874 61.6872C155.674 61.6872 156.258 61.4712 156.626 61.0392C157.01 60.5912 157.202 59.9432 157.202 59.0952V51.1032H160.802V58.9032C160.802 60.7432 160.33 62.1512 159.386 63.1272C158.458 64.0872 156.954 64.5672 154.874 64.5672ZM168.669 64.5672C167.725 64.5672 166.773 64.4632 165.813 64.2552C164.869 64.0472 164.029 63.7512 163.293 63.3672L164.301 60.5112C164.621 60.6872 165.005 60.8712 165.453 61.0632C165.901 61.2552 166.389 61.4152 166.917 61.5432C167.445 61.6712 167.981 61.7352 168.525 61.7352C169.165 61.7352 169.645 61.6472 169.965 61.4712C170.301 61.2792 170.469 60.9912 170.469 60.6072C170.469 60.3192 170.357 60.0872 170.133 59.9112C169.925 59.7192 169.613 59.5432 169.197 59.3832C168.781 59.2072 168.285 59.0232 167.709 58.8312C166.861 58.5272 166.133 58.1992 165.525 57.8472C164.917 57.4952 164.445 57.0632 164.109 56.5512C163.789 56.0392 163.629 55.3992 163.629 54.6312C163.629 53.7512 163.853 53.0312 164.301 52.4712C164.749 51.9112 165.381 51.4952 166.197 51.2232C167.013 50.9352 167.965 50.7912 169.053 50.7912C169.949 50.7912 170.757 50.8632 171.477 51.0072C172.197 51.1512 172.757 51.3352 173.157 51.5592V54.3912C172.885 54.2632 172.525 54.1352 172.077 54.0072C171.645 53.8792 171.173 53.7752 170.661 53.6952C170.165 53.5992 169.685 53.5512 169.221 53.5512C168.565 53.5512 168.069 53.6392 167.733 53.8152C167.397 53.9912 167.229 54.2392 167.229 54.5592C167.229 54.8152 167.341 55.0312 167.565 55.2072C167.805 55.3832 168.149 55.5512 168.597 55.7112C169.045 55.8552 169.581 56.0392 170.205 56.2632C171.037 56.5512 171.741 56.8712 172.317 57.2232C172.893 57.5752 173.325 58.0072 173.613 58.5192C173.917 59.0312 174.069 59.6632 174.069 60.4152C174.069 61.1352 173.901 61.8152 173.565 62.4552C173.245 63.0792 172.693 63.5912 171.909 63.9912C171.125 64.3752 170.045 64.5672 168.669 64.5672ZM169.119 70.6152C167.839 70.6152 166.903 70.4232 166.311 70.0392C165.719 69.6552 165.423 69.1512 165.423 68.5272V68.1192C165.423 67.8472 165.351 67.6792 165.207 67.6152C165.063 67.5672 164.871 67.5752 164.631 67.6392L164.463 66.0312C164.687 65.9352 164.975 65.8712 165.327 65.8392C165.679 65.8072 165.967 65.7912 166.191 65.7912C166.895 65.7912 167.407 65.9192 167.727 66.1752C168.031 66.4312 168.183 66.7912 168.183 67.2552V67.8072C168.183 68.0792 168.247 68.2872 168.375 68.4312C168.487 68.5912 168.703 68.6712 169.023 68.6712C169.359 68.6712 169.591 68.5912 169.719 68.4312C169.847 68.2872 169.911 68.0792 169.911 67.8072V65.8632H172.839V68.1912C172.839 68.9752 172.543 69.5752 171.951 69.9912C171.359 70.4072 170.415 70.6152 169.119 70.6152ZM166.036 49.3032V48.1032C166.26 48.0392 166.508 47.9512 166.78 47.8392C167.052 47.7272 167.292 47.5752 167.5 47.3832C167.708 47.1912 167.812 46.9512 167.812 46.6632C167.812 46.4392 167.748 46.2632 167.62 46.1352C167.492 46.0072 167.332 45.9432 167.14 45.9432C167.012 45.9432 166.876 45.9672 166.732 46.0152C166.588 46.0632 166.46 46.1112 166.348 46.1592L165.892 44.5512C166.212 44.2792 166.612 44.1032 167.092 44.0232C167.556 43.9272 167.948 43.8792 168.268 43.8792C168.988 43.8792 169.556 44.0472 169.972 44.3832C170.372 44.7192 170.572 45.2152 170.572 45.8712C170.572 46.2232 170.484 46.5512 170.308 46.8552C170.116 47.1592 169.828 47.4072 169.444 47.5992L169.348 46.9752H173.884V49.3032H166.036Z" fill="#693708"/>
</g>
<defs>
<filter id="filter0_d_326_2554" x="-1.08749" y="12.213" width="267.158" height="89.3677" filterUnits="userSpaceOnUse" color-interpolation-filters="sRGB">
<feFlood flood-opacity="0" result="BackgroundImageFix"/>
<feColorMatrix in="SourceAlpha" type="matrix" values="0 0 0 0 0 0 0 0 0 0 0 0 0 0 0 0 0 0 127 0" result="hardAlpha"/>
<feOffset dx="3.26248" dy="2.71874"/>
<feGaussianBlur stdDeviation="2.17499"/>
<feColorMatrix type="matrix" values="0 0 0 0 0 0 0 0 0 0 0 0 0 0 0 0 0 0 0.3 0"/>
<feBlend mode="normal" in2="BackgroundImageFix" result="effect1_dropShadow_326_2554"/>
<feBlend mode="normal" in="SourceGraphic" in2="effect1_dropShadow_326_2554" result="shape"/>
</filter>
<filter id="filter1_d_326_2554" x="199.914" y="45.8665" width="45.0489" height="25.1313" filterUnits="userSpaceOnUse" color-interpolation-filters="sRGB">
<feFlood flood-opacity="0" result="BackgroundImageFix"/>
<feColorMatrix in="SourceAlpha" type="matrix" values="0 0 0 0 0 0 0 0 0 0 0 0 0 0 0 0 0 0 127 0" result="hardAlpha"/>
<feOffset dx="1.35512" dy="2.71024"/>
<feGaussianBlur stdDeviation="1.35512"/>
<feComposite in2="hardAlpha" operator="out"/>
<feColorMatrix type="matrix" values="0 0 0 0 0 0 0 0 0 0 0 0 0 0 0 0 0 0 0.25 0"/>
<feBlend mode="normal" in2="BackgroundImageFix" result="effect1_dropShadow_326_2554"/>
<feBlend mode="normal" in="SourceGraphic" in2="effect1_dropShadow_326_2554" result="shape"/>
</filter>
<filter id="filter2_d_326_2554" x="24.5057" y="43.8792" width="153.628" height="32.1565" filterUnits="userSpaceOnUse" color-interpolation-filters="sRGB">
<feFlood flood-opacity="0" result="BackgroundImageFix"/>
<feColorMatrix in="SourceAlpha" type="matrix" values="0 0 0 0 0 0 0 0 0 0 0 0 0 0 0 0 0 0 127 0" result="hardAlpha"/>
<feOffset dx="1.35512" dy="2.71024"/>
<feGaussianBlur stdDeviation="1.35512"/>
<feComposite in2="hardAlpha" operator="out"/>
<feColorMatrix type="matrix" values="0 0 0 0 0 0 0 0 0 0 0 0 0 0 0 0 0 0 0.25 0"/>
<feBlend mode="normal" in2="BackgroundImageFix" result="effect1_dropShadow_326_2554"/>
<feBlend mode="normal" in="SourceGraphic" in2="effect1_dropShadow_326_2554" result="shape"/>
</filter>
<linearGradient id="paint0_linear_326_2554" x1="129.223" y1="16.1435" x2="129.223" y2="109.632" gradientUnits="userSpaceOnUse">
<stop stop-color="white"/>
<stop offset="0.67" stop-color="#CCCCCC"/>
<stop offset="1" stop-color="#A5A5A5"/>
</linearGradient>
<linearGradient id="paint1_linear_326_2554" x1="123.146" y1="17.2499" x2="123.292" y2="158.144" gradientUnits="userSpaceOnUse">
<stop stop-color="#D39B2C"/>
<stop offset="0.135417" stop-color="#FAE370"/>
<stop offset="0.271006" stop-color="#F9CC42"/>
<stop offset="0.502278" stop-color="#FFF1A7"/>
</linearGradient>
<linearGradient id="paint2_linear_326_2554" x1="115.341" y1="32.6589" x2="115.341" y2="76.6873" gradientUnits="userSpaceOnUse">
<stop stop-color="white"/>
<stop offset="0.11" stop-color="white" stop-opacity="0.88"/>
<stop offset="0.44" stop-color="white" stop-opacity="0.51"/>
<stop offset="0.71" stop-color="white" stop-opacity="0.23"/>
<stop offset="0.9" stop-color="white" stop-opacity="0.06"/>
<stop offset="1" stop-color="white" stop-opacity="0"/>
</linearGradient>
<linearGradient id="paint3_linear_326_2554" x1="218.577" y1="16.1364" x2="218.577" y2="109.625" gradientUnits="userSpaceOnUse">
<stop stop-color="white"/>
<stop offset="0.67" stop-color="#CCCCCC"/>
<stop offset="1" stop-color="#A5A5A5"/>
</linearGradient>
<linearGradient id="paint4_linear_326_2554" x1="190.325" y1="25.547" x2="299.258" y2="132.282" gradientUnits="userSpaceOnUse">
<stop stop-color="#D39B2C"/>
<stop offset="0.135417" stop-color="#FAE370"/>
<stop offset="0.271006" stop-color="#F9CC42"/>
<stop offset="0.502278" stop-color="#FFF1A7"/>
</linearGradient>
<radialGradient id="paint5_radial_326_2554" cx="0" cy="0" r="1" gradientUnits="userSpaceOnUse" gradientTransform="translate(123.739 84.1104) scale(93.6703 12.6348)">
<stop stop-color="white"/>
<stop offset="0.11" stop-color="white" stop-opacity="0.86"/>
<stop offset="0.36" stop-color="white" stop-opacity="0.56"/>
<stop offset="0.58" stop-color="white" stop-opacity="0.32"/>
<stop offset="0.77" stop-color="white" stop-opacity="0.15"/>
<stop offset="0.91" stop-color="white" stop-opacity="0.04"/>
<stop offset="1" stop-color="white" stop-opacity="0"/>
</radialGradient>
</defs>
</svg>
